<svg width="109" height="83" viewBox="0 0 109 83" fill="none" xmlns="http://www.w3.org/2000/svg">
<path d="M44.9746 38.6286C47.2419 35.6714 48.3541 29.7857 46.4148 25.1571C44.7464 21.1857 41.1245 18.9 36.4902 18.9C31.8558 18.9 28.2339 21.1857 26.5513 25.1571C24.5977 29.8 25.7385 35.7143 27.9915 38.6428C19.2504 40.5714 14.6445 47.1286 14.6445 57.6428C14.6445 63.3714 22.8438 64.5286 25.9381 64.9714C30.5582 65.6286 35.4207 65.6571 36.3476 65.6571H36.6755C37.6024 65.6571 42.4649 65.6286 47.085 64.9714C50.1793 64.5286 58.3786 63.3714 58.3786 57.6428C58.3786 47.1143 53.7442 40.5571 44.9746 38.6286ZM36.6755 59.3286H36.3476C28.79 59.3286 22.5443 58.2286 20.9615 57.1428C21.1184 47.6428 25.7527 45.5143 29.7882 44.7286C30.0306 44.6857 30.2587 44.6143 30.4726 44.5143C32.5973 43.7143 33.9805 42.4571 34.5651 40.7571C34.9644 39.6143 35.1355 37.7857 33.7381 35.6C33.5955 35.3714 33.4101 35.1571 33.1962 34.9714L33.0394 34.8286C32.1553 33.9286 31.2712 30.2571 32.3834 27.6143C32.8112 26.5857 33.7095 25.2286 36.4902 25.2286C39.2708 25.2286 40.1691 26.5857 40.5969 27.6143C41.7092 30.2571 40.8251 33.9143 39.941 34.8143L39.7841 34.9571C39.5702 35.1428 39.3991 35.3571 39.2423 35.6C37.8448 37.7857 38.0159 39.6 38.4009 40.7571C38.9998 42.5143 40.4686 43.8143 42.7358 44.6C42.8784 44.6571 43.0353 44.6857 43.1921 44.7143C47.2561 45.4857 51.919 47.6143 52.0758 57.1286C50.5073 58.2143 44.2616 59.3143 36.6898 59.3143L36.6755 59.3286Z" fill="#094910"/>
<path d="M97.2359 0H11.7499C5.26177 0 0 5.28571 0 11.7714V71.2286C0 77.7143 5.27603 83 11.7499 83H18.8083C25.7242 83 30.5582 80.2429 30.544 76.4143C30.601 76.3 31.0288 75.9429 31.7703 75.9429C32.5118 75.9429 32.9253 76.2857 32.9681 76.3C32.9681 80.2429 37.8021 82.9857 44.7179 82.9857H63.512C70.4279 82.9857 75.2619 80.2286 75.2476 76.4C75.3047 76.2857 75.7325 75.9286 76.4739 75.9286C77.2154 75.9286 77.629 76.2714 77.6718 76.2857C77.6718 80.2286 82.5057 82.9714 89.4216 82.9714H97.2501C103.724 82.9714 109 77.6857 109 71.2V11.7714C109 5.28571 103.724 0 97.2501 0H97.2359ZM102.669 71.2286C102.669 74.2286 100.23 76.6714 97.2359 76.6714H89.4074C86.4842 76.6714 84.6162 75.9857 83.9317 75.5857C83.5182 72.2429 80.324 69.6286 76.4597 69.6286C72.5954 69.6286 69.4012 72.2429 68.9877 75.5857C68.3032 76 66.4352 76.6714 63.512 76.6714H44.7179C41.7947 76.6714 39.9267 75.9857 39.2423 75.5857C38.8287 72.2429 35.6346 69.6286 31.7703 69.6286C27.9059 69.6286 24.7118 72.2429 24.2983 75.5857C23.6138 76 21.7458 76.6714 18.8226 76.6714H11.7641C8.76962 76.6714 6.33123 74.2286 6.33123 71.2286V11.7714C6.33123 8.77143 8.76962 6.32857 11.7641 6.32857H97.2501C100.245 6.32857 102.683 8.77143 102.683 11.7714V71.2286H102.669Z" fill="#094910"/>
<path d="M89.7781 25.7714H61.1164C59.3681 25.7714 57.9508 27.1881 57.9508 28.9357C57.9508 30.6833 59.3681 32.1 61.1164 32.1H89.7781C91.5264 32.1 92.9437 30.6833 92.9437 28.9357C92.9437 27.1881 91.5264 25.7714 89.7781 25.7714Z" fill="#FF9505"/>
<path d="M89.7781 38.9857H75.2619C73.5136 38.9857 72.0963 40.4024 72.0963 42.15C72.0963 43.8976 73.5136 45.3143 75.2619 45.3143H89.7781C91.5265 45.3143 92.9438 43.8976 92.9438 42.15C92.9438 40.4024 91.5265 38.9857 89.7781 38.9857Z" fill="#FF9505"/>
</svg>
