<svg width="76" height="76" viewBox="0 0 76 76" fill="none" xmlns="http://www.w3.org/2000/svg">
<path d="M51 27V47H25V27" stroke="#FF9505" stroke-width="4" stroke-linecap="round" stroke-linejoin="round"/>
<path d="M15 26H61" stroke="#094910" stroke-width="4" stroke-linecap="round" stroke-linejoin="round"/>
<path d="M57.3333 33H65.0667C66.13 33 67 32.1563 67 31.125V19.875C67 18.8437 66.13 18 65.0667 18H10.9333C9.87 18 9 18.8437 9 19.875V31.125C9 32.1563 9.87 33 10.9333 33H18.6667" stroke="#094910" stroke-width="4" stroke-linecap="round" stroke-linejoin="round"/>
<path d="M61 33V63" stroke="#094910" stroke-width="4" stroke-linecap="round" stroke-linejoin="round"/>
<path d="M15 33V63" stroke="#094910" stroke-width="4" stroke-linecap="round" stroke-linejoin="round"/>
<path d="M64 63H58" stroke="#094910" stroke-width="4" stroke-linecap="round" stroke-linejoin="round"/>
<path d="M12 63H18" stroke="#094910" stroke-width="4" stroke-linecap="round" stroke-linejoin="round"/>
<path d="M61 55H15" stroke="#094910" stroke-width="4" stroke-linecap="round" stroke-linejoin="round"/>
<path d="M17 18V13H26V18" stroke="#094910" stroke-width="4" stroke-linecap="round" stroke-linejoin="round"/>
</svg>
