<svg width="78" height="76" viewBox="0 0 78 76" fill="none" xmlns="http://www.w3.org/2000/svg">
<path d="M26.1094 20V14H71.1994V48.8H47.5944" stroke="#094910" stroke-width="4" stroke-linecap="round" stroke-linejoin="round"/>
<path d="M29.63 61.95V51.46C36.99 49.05 43.46 45.62 47.63 42.49C49.4 41.16 49.71 38.73 48.22 36.93C47.54 36.11 46.53 35.65 45.53 35.65C45.01 35.65 44.5 35.77 44.05 36.03C34.71 41.27 29.9 42.39 24.98 42.62L20.05 47.55L15.47 42.97C10.39 43.88 7 46.89 7 53.15V61.95" stroke="#094910" stroke-width="4" stroke-linecap="round" stroke-linejoin="round"/>
<path d="M20.0409 39.6401C24.2709 39.6401 27.7009 36.2101 27.7009 31.9801C27.7009 27.7501 24.2709 24.3101 20.0409 24.3101C15.8109 24.3101 12.3809 27.7401 12.3809 31.9801C12.3809 36.2201 15.8109 39.6401 20.0409 39.6401Z" stroke="#094910" stroke-width="4" stroke-linecap="round" stroke-linejoin="round"/>
<path d="M33.3105 22.46H65.0205" stroke="#FF9505" stroke-width="4" stroke-linecap="round" stroke-linejoin="round"/>
<path d="M40.2988 29.4502H65.0188" stroke="#FF9505" stroke-width="4" stroke-linecap="round" stroke-linejoin="round"/>
</svg>
