<svg width="73" height="73" viewBox="0 0 73 73" fill="none" xmlns="http://www.w3.org/2000/svg">
<path d="M59.5566 41.4434C62.0106 26.2243 51.6625 11.8974 36.4434 9.44338C21.2244 6.98934 6.89749 17.3374 4.44345 32.5565C1.9894 47.7755 12.3375 62.1024 27.5566 64.5565C42.7756 67.0105 57.1025 56.6624 59.5566 41.4434Z" stroke="#094910" stroke-width="4" stroke-linecap="round" stroke-linejoin="round"/>
<path d="M31.997 59.3295C19.6838 59.3295 9.66699 49.3128 9.66699 36.9995" stroke="#FF9505" stroke-width="4" stroke-linecap="round" stroke-linejoin="round"/>
<path d="M31.9971 14.6694C44.3103 14.6694 54.3271 24.6862 54.3271 36.9994" stroke="#FF9505" stroke-width="4" stroke-linecap="round" stroke-linejoin="round"/>
<path d="M40.6558 36.9993C40.6558 41.7836 36.777 45.6578 31.9973 45.6578C27.2177 45.6578 23.3389 41.779 23.3389 36.9993C23.3389 32.2196 27.2177 28.3408 31.9973 28.3408C36.777 28.3408 40.6558 32.2196 40.6558 36.9993Z" stroke="#094910" stroke-width="4" stroke-linecap="round" stroke-linejoin="round"/>
<path d="M31.9972 39.6879C30.5128 39.6879 29.3086 38.479 29.3086 36.9994C29.3086 35.5197 30.5175 34.3108 31.9972 34.3108C33.4768 34.3108 34.6857 35.5197 34.6857 36.9994C34.6857 38.479 33.4768 39.6879 31.9972 39.6879V39.6879Z" stroke="#094910" stroke-width="4" stroke-linecap="round" stroke-linejoin="round"/>
</svg>
