<svg width="104" height="83" viewBox="0 0 104 83" fill="none" xmlns="http://www.w3.org/2000/svg">
<path d="M70.5843 25.7137L62.8342 13.1456C62.8342 13.1456 62.7623 13.0311 62.7336 12.9882C60.7781 10.2112 57.9168 8.20715 54.6816 7.31966C43.452 4.24206 27.9087 0.148133 27.765 0.10519C26.097 -0.338557 24.386 0.663453 23.9403 2.32393C23.4945 3.9844 24.501 5.68781 26.1689 6.13156C26.3271 6.1745 41.8272 10.2541 53.028 13.3317C54.8397 13.8327 56.4501 14.9492 57.5717 16.5095L65.2498 28.9774C65.3792 29.1921 65.408 29.4498 65.3361 29.6645L63.4094 35.3044C62.6185 34.4169 61.7127 33.6152 60.7206 32.9568C60.85 32.4415 60.9219 32.2267 60.9219 32.2267C61.2957 31.1818 61.0657 30.0223 60.3467 29.1778L55.0986 23.0942C54.7391 22.679 54.2934 22.3784 53.7757 22.1923L46.4858 19.6157C45.8532 19.3867 45.163 19.3724 44.5303 19.5728L42.7186 20.1168C42.503 20.1883 42.2873 20.2742 42.086 20.3887L35.817 23.9101C34.9255 24.4111 34.336 25.3272 34.2353 26.3435C34.149 27.3026 34.0052 30.6235 35.6875 32.6848C37.8587 35.3759 41.1658 36.564 43.8258 37.5374C44.4872 37.7807 45.3068 38.0813 45.8388 38.3104C45.8675 38.3104 45.8819 38.3247 45.9107 38.339C46.0832 38.4249 46.2126 38.4965 46.2989 38.5537C47.4923 39.6702 48.3119 41.3594 48.5995 42.5475C48.3119 42.5475 47.9956 42.5188 47.7799 42.4329C47.0178 42.0894 44.2715 41.159 38.2182 39.0977C35.5725 38.1959 32.8118 37.2654 30.5256 36.4638C27.6643 35.4618 25.2343 33.6153 23.4945 31.1245C19.7417 25.6994 15.155 18.0412 15.1118 17.9696C14.7092 17.2825 14.0478 16.7815 13.2858 16.5668L8.61273 15.2355C6.9592 14.7632 5.21941 15.7222 4.74492 17.3827C4.27043 19.0289 5.23378 20.7609 6.88731 21.2333L10.3813 22.221C11.7904 24.5542 15.2844 30.2227 18.347 34.6602C20.8345 38.2531 24.3285 40.9013 28.4551 42.347C30.7413 43.1487 33.5308 44.0934 36.1908 44.9952C37.1398 45.3101 38.1463 45.6537 39.124 45.9972C39.5554 49.9337 41.6546 53.5552 44.9617 55.8742C45.5081 56.2607 46.1408 56.4468 46.759 56.4468C47.7368 56.4468 48.7145 55.9887 49.3184 55.1298C50.3105 53.727 49.9798 51.7802 48.5563 50.7926C47.6793 50.177 46.9747 49.4041 46.4283 48.5452C47.1041 48.717 47.8087 48.8028 48.4988 48.8028C49.9654 48.8028 51.4177 48.445 52.5392 47.7293C54.0202 46.7845 54.8973 45.2815 54.9404 43.5781C54.9835 41.5168 54.1496 39.0404 52.8268 36.8933C52.8699 36.8933 52.913 36.8933 52.9418 36.8933C57.1835 36.8933 60.6199 40.3287 60.6199 44.5372C60.6199 47.0279 59.3978 49.3754 57.356 50.7926C55.9325 51.7802 55.5874 53.7127 56.5796 55.1298C57.1834 56.003 58.1612 56.4611 59.1533 56.4611C59.7716 56.4611 60.3899 56.275 60.9362 55.9028C64.6603 53.3262 66.8746 49.0748 66.8746 44.5372C66.8746 44.5085 66.8746 44.4656 66.8746 44.437C66.8746 44.437 66.8746 44.4226 66.889 44.4083L71.2169 31.7257C71.8927 29.7504 71.6483 27.5889 70.5411 25.7853L70.5843 25.7137ZM46.9028 31.9834C46.6008 31.8689 46.2845 31.7544 45.9682 31.6399C43.984 30.9241 41.7409 30.1082 40.6194 28.8056C40.5762 28.7054 40.5475 28.5479 40.5187 28.3762L44.861 25.9427L45.3499 25.7996L50.8857 27.7607L53.3588 30.6235C53.2294 30.6235 53.1143 30.6092 52.9849 30.6092C50.8569 30.6092 48.7864 31.0959 46.9172 32.012L46.9028 31.9834Z" fill="#FF9505"/>
<path d="M28.412 56.3895H75.588C77.3134 56.3895 78.7081 55.001 78.7081 53.2833C78.7081 51.5655 77.3134 50.177 75.588 50.177H28.412C26.6866 50.177 25.2919 51.5655 25.2919 53.2833C25.2919 55.001 26.6866 56.3895 28.412 56.3895Z" fill="#094910"/>
<path d="M100.88 38.4106H82.1302C80.4048 38.4106 79.0101 39.7991 79.0101 41.5168C79.0101 43.2345 80.4048 44.623 82.1302 44.623H97.7453V61.8719H6.24028V44.623H11.5747C13.3002 44.623 14.6949 43.2345 14.6949 41.5168C14.6949 39.7991 13.3002 38.4106 11.5747 38.4106H3.12014C1.39472 38.4106 0 39.7991 0 41.5168V64.9925V79.8938C0 81.6115 1.39472 83 3.12014 83H100.88C102.605 83 104 81.6115 104 79.8938V41.5311C104 39.8134 102.605 38.4249 100.88 38.4249V38.4106ZM6.24028 68.113H97.7453V76.7875H6.24028V68.113Z" fill="#094910"/>
</svg>
