<svg width="73" height="73" viewBox="0 0 73 73" fill="none" xmlns="http://www.w3.org/2000/svg">
<path d="M48.7182 60.8462C62.1524 54.11 67.5822 37.7588 60.8461 24.3247C54.11 10.8906 37.7588 5.46076 24.3246 12.1969C10.8905 18.933 5.4607 35.2842 12.1968 48.7183C18.9329 62.1525 35.2841 67.5823 48.7182 60.8462Z" stroke="#094910" stroke-width="4" stroke-linecap="round" stroke-linejoin="round"/>
<path d="M36.5233 57.9463C24.7076 57.9463 15.1006 48.3347 15.1006 36.5236C15.1006 24.7126 24.7076 15.101 36.5233 15.101C48.339 15.101 57.946 24.7079 57.946 36.5236C57.946 48.3394 48.3343 57.9463 36.5233 57.9463Z" stroke="#FF9505" stroke-width="4" stroke-linecap="round" stroke-linejoin="round"/>
<path d="M40.9637 25.3864C40.9637 27.8384 38.9749 29.8272 36.5229 29.8272C34.0708 29.8272 32.082 27.8384 32.082 25.3864C32.082 22.9343 34.0708 20.9456 36.5229 20.9456C38.9749 20.9456 40.9637 22.9343 40.9637 25.3864Z" stroke="#094910" stroke-width="5" stroke-linecap="round" stroke-linejoin="round"/>
<path d="M40.9637 47.7168C40.9637 50.1689 38.9749 52.1577 36.5229 52.1577C34.0708 52.1577 32.082 50.1689 32.082 47.7168C32.082 45.2648 34.0708 43.276 36.5229 43.276C38.9749 43.276 40.9637 45.2648 40.9637 47.7168Z" stroke="#094910" stroke-width="5" stroke-linecap="round" stroke-linejoin="round"/>
<path d="M47.6889 40.9925C45.2368 40.9925 43.248 39.0037 43.248 36.5517C43.248 34.0996 45.2368 32.1108 47.6889 32.1108C50.1409 32.1108 52.1297 34.0996 52.1297 36.5517C52.1297 39.0037 50.1409 40.9925 47.6889 40.9925Z" stroke="#094910" stroke-width="4" stroke-linecap="round" stroke-linejoin="round"/>
<path d="M25.3578 40.9925C22.9058 40.9925 20.917 39.0037 20.917 36.5517C20.917 34.0996 22.9058 32.1108 25.3578 32.1108C27.8099 32.1108 29.7987 34.0996 29.7987 36.5517C29.7987 39.0037 27.8099 40.9925 25.3578 40.9925Z" stroke="#094910" stroke-width="4" stroke-linecap="round" stroke-linejoin="round"/>
<path d="M35.0723 36.5516H37.9689" stroke="#FF9505" stroke-width="4" stroke-linecap="round" stroke-linejoin="round"/>
<path d="M36.5228 63.7349H3.85059" stroke="#094910" stroke-width="4" stroke-linecap="round" stroke-linejoin="round"/>
<path d="M13.07 57.9464H6.74805" stroke="#094910" stroke-width="4" stroke-linecap="round" stroke-linejoin="round"/>
</svg>
