<svg width="109" height="84" viewBox="0 0 109 84" fill="none" xmlns="http://www.w3.org/2000/svg">
<path d="M62.1516 41.9427L60.4134 34.5276C59.7437 31.6932 57.0509 29.546 54.1585 29.546H5.23147C3.60721 29.546 2.11119 30.2331 1.14234 31.4499C0.159237 32.638 -0.211207 34.2556 0.116494 35.8589L9.03564 78.9325C9.63405 81.7812 12.3554 84 15.2477 84H41.8199L43.5439 77.8875H15.2762C15.2762 77.8875 15.0197 77.7301 15.0055 77.6871L13.9511 72.591H42.6605L44.2278 66.4642H12.6831L6.28581 35.6585H54.1301C54.2298 35.6728 54.4578 35.8446 54.472 35.9162L55.9538 42.1861L56.7089 45.4069C56.6092 45.4213 56.5094 45.4356 56.424 45.4642L56.4809 45.8221C59.1595 45.5787 61.8809 45.5501 62.7642 45.5501H62.9922L62.1516 41.9427Z" fill="#FF9505"/>
<path d="M74.6754 0C65.0154 0 57.1506 7.90184 57.1506 17.6074C57.1506 27.3129 65.0154 35.2004 74.6754 35.2004C84.3355 35.2004 92.186 27.3129 92.186 17.6074C92.186 7.90184 84.3355 0 74.6754 0ZM74.6754 28.9018C68.4634 28.9018 63.4197 23.8344 63.4197 17.6074C63.4197 11.3804 68.4634 6.29857 74.6754 6.29857C80.8875 6.29857 85.917 11.3661 85.917 17.6074C85.917 23.8487 80.8733 28.9018 74.6754 28.9018Z" fill="#094910"/>
<path d="M108.913 80.0777L102.786 52.092C101.518 46.2802 97.073 42.1718 91.9011 41.9714C91.7729 41.9571 91.6446 41.9427 91.5164 41.9427H61.4392C60.2994 41.9571 58.3759 41.9857 56.31 42.1575C56.253 42.1575 56.196 42.1575 56.139 42.1575C56.082 42.1718 56.025 42.1718 55.9538 42.1718C55.7828 42.2004 55.5976 42.2147 55.4266 42.229C51.1095 43.2025 47.5618 46.9816 46.4362 52.0777L43.5724 65.2045L43.2874 66.4499L43.259 66.636L43.2162 66.8078L42.1619 71.5031H42.1904L42.0336 72.2188L41.9909 72.3906L41.9482 72.5767L40.7798 77.6871L40.7371 77.8732L40.6943 78.045L40.6516 78.2311L39.4548 83.6278L39.412 83.7996L39.3693 83.9857H106.277C107.118 83.9857 107.916 83.5419 108.414 82.7689C108.941 81.9959 109.127 81.0082 108.913 80.0634V80.0777ZM46.8209 77.7014L52.0926 53.638C52.7908 50.4744 54.8709 48.2699 57.7205 48.2699C57.8202 48.2699 57.9342 48.2556 58.0482 48.2413H91.1744C91.1744 48.2413 90.9037 48.2699 90.8325 48.2699C93.6678 48.2699 96.1184 50.4744 96.8166 53.638L102.088 77.7014H46.8209Z" fill="#094910"/>
</svg>
