<svg width="76" height="76" viewBox="0 0 76 76" fill="none" xmlns="http://www.w3.org/2000/svg">
<path d="M38 54C46.8366 54 54 46.8366 54 38C54 29.1634 46.8366 22 38 22C29.1634 22 22 29.1634 22 38C22 46.8366 29.1634 54 38 54Z" stroke="#094910" stroke-width="4" stroke-linejoin="round"/>
<path d="M38 12V17" stroke="#FF9505" stroke-width="4" stroke-linecap="round" stroke-linejoin="round"/>
<path d="M64 38H59" stroke="#FF9505" stroke-width="4" stroke-linecap="round" stroke-linejoin="round"/>
<path d="M38 59V64" stroke="#FF9505" stroke-width="4" stroke-linecap="round" stroke-linejoin="round"/>
<path d="M19 19L23 23" stroke="#FF9505" stroke-width="4" stroke-linecap="round" stroke-linejoin="round"/>
<path d="M53 53L57 57" stroke="#FF9505" stroke-width="4" stroke-linecap="round" stroke-linejoin="round"/>
<path d="M17 38H12" stroke="#FF9505" stroke-width="4" stroke-linecap="round" stroke-linejoin="round"/>
<path d="M57 19L53 23" stroke="#FF9505" stroke-width="4" stroke-linecap="round" stroke-linejoin="round"/>
<path d="M23 53L19 57" stroke="#FF9505" stroke-width="4" stroke-linecap="round" stroke-linejoin="round"/>
<path d="M38 41C41.3137 41 44 38.3137 44 35C44 31.6863 41.3137 29 38 29C34.6863 29 32 31.6863 32 35C32 38.3137 34.6863 41 38 41Z" stroke="#FF9505" stroke-width="4" stroke-linejoin="round"/>
<path d="M38 54C42.2703 54 46.1491 52.2568 49 49.4274C48.8899 44.8168 44.0078 42 38 42C31.9922 42 27.1101 44.8042 27 49.4274C29.8632 52.2568 33.7297 54 38 54Z" stroke="#FF9505" stroke-width="4" stroke-linejoin="round"/>
<path d="M38 12C40.2091 12 42 10.2091 42 8C42 5.79086 40.2091 4 38 4C35.7909 4 34 5.79086 34 8C34 10.2091 35.7909 12 38 12Z" stroke="#094910" stroke-width="4" stroke-linejoin="round"/>
<path d="M38 72C40.2091 72 42 70.2091 42 68C42 65.7909 40.2091 64 38 64C35.7909 64 34 65.7909 34 68C34 70.2091 35.7909 72 38 72Z" stroke="#094910" stroke-width="4" stroke-linejoin="round"/>
<path d="M8 42C10.2091 42 12 40.2091 12 38C12 35.7909 10.2091 34 8 34C5.79086 34 4 35.7909 4 38C4 40.2091 5.79086 42 8 42Z" stroke="#094910" stroke-width="4" stroke-linejoin="round"/>
<path d="M68 42C70.2091 42 72 40.2091 72 38C72 35.7909 70.2091 34 68 34C65.7909 34 64 35.7909 64 38C64 40.2091 65.7909 42 68 42Z" stroke="#094910" stroke-width="4" stroke-linejoin="round"/>
<path d="M18.9754 14.0246C20.3415 15.3907 20.3415 17.6093 18.9754 18.9754C17.6093 20.3415 15.3907 20.3415 14.0246 18.9754C12.6585 17.6093 12.6585 15.3907 14.0246 14.0246C15.3907 12.6585 17.6093 12.6585 18.9754 14.0246Z" stroke="#094910" stroke-width="4" stroke-linejoin="round"/>
<path d="M61.9754 57.0246C63.3415 58.3907 63.3415 60.6093 61.9754 61.9754C60.6093 63.3415 58.3907 63.3415 57.0246 61.9754C55.6585 60.6093 55.6585 58.3907 57.0246 57.0246C58.3907 55.6585 60.6093 55.6585 61.9754 57.0246Z" stroke="#094910" stroke-width="4" stroke-linejoin="round"/>
<path d="M18.9754 57.0246C20.3415 58.3907 20.3415 60.6093 18.9754 61.9754C17.6093 63.3415 15.3907 63.3415 14.0246 61.9754C12.6585 60.6093 12.6585 58.3907 14.0246 57.0246C15.3907 55.6585 17.6093 55.6585 18.9754 57.0246Z" stroke="#094910" stroke-width="4" stroke-linejoin="round"/>
<path d="M61.9754 14.0246C63.3415 15.3907 63.3415 17.6093 61.9754 18.9754C60.6093 20.3415 58.3907 20.3415 57.0246 18.9754C55.6585 17.6093 55.6585 15.3907 57.0246 14.0246C58.3907 12.6585 60.6093 12.6585 61.9754 14.0246Z" stroke="#094910" stroke-width="4" stroke-linejoin="round"/>
</svg>
