<svg width="73" height="73" viewBox="0 0 73 73" fill="none" xmlns="http://www.w3.org/2000/svg">
<path d="M3 46.8623V46.7597C3 46.6104 3.0093 46.4565 3.02326 46.3073C3.03256 46.214 3.04652 46.1208 3.06977 46.0275C3.24186 44.8523 3.77209 43.747 4.6 42.8936L33.0558 13.6488C34.1256 12.5482 35.5907 11.9559 37.1023 12.0026L69.8698 13.1358L50.6047 32.452" stroke="#094910" stroke-width="4" stroke-linecap="round" stroke-linejoin="round"/>
<path d="M20.4093 45.1041H20.307L4.91628 44.5911C4.41861 44.5818 3.93023 44.7776 3.56744 45.1367C3.31628 45.3792 3.14884 45.6824 3.06977 46.0228C3.03721 46.1161 3.02326 46.2093 3.02326 46.3026C3 46.3725 3 46.4285 3 46.4985V46.755C3.02326 47.5338 3.49768 48.224 4.2 48.4898L39.2651 62L71 30.1809L68.8698 29.1129" stroke="#094910" stroke-width="4" stroke-linecap="round" stroke-linejoin="round"/>
<path d="M53.3296 18.4335L40.1621 17.9905" stroke="#FF9505" stroke-width="4" stroke-linecap="round" stroke-linejoin="round"/>
<path d="M46.4835 23.139L37.7021 22.8499" stroke="#FF9505" stroke-width="4" stroke-linecap="round" stroke-linejoin="round"/>
<path d="M3.0332 46.1162L3.04716 46.1255L38.1355 54.0488L69.8658 22.2297L67.1727 21.4509" stroke="#094910" stroke-width="4" stroke-linecap="round" stroke-linejoin="round"/>
<path d="M20.3071 45.1041C32.9396 45.785 46.4931 36.5792 50.6001 32.4567C46.4931 36.6771 37.3722 34.7091 34.735 32.8857C34.628 35.3574 28.7164 45.3839 20.0605 45.0948" stroke="#094910" stroke-width="4" stroke-linecap="round" stroke-linejoin="round"/>
</svg>
