<svg width="76" height="76" viewBox="0 0 76 76" fill="none" xmlns="http://www.w3.org/2000/svg">
<path d="M23.3571 18H51.6429C52.9393 18 54 19.0537 54 20.3415V66H21V20.3415C21 19.0537 22.0607 18 23.3571 18Z" stroke="#094910" stroke-width="4" stroke-linecap="round" stroke-linejoin="round"/>
<path d="M52 6L23.4301 17.8242H23.4184L23.0232 17.9883L23 18" stroke="#094910" stroke-width="4" stroke-linecap="round" stroke-linejoin="round"/>
<path d="M54 39H73V32" stroke="#094910" stroke-width="4" stroke-linecap="round" stroke-linejoin="round"/>
<path d="M59 34H68" stroke="#FF9505" stroke-width="4" stroke-linecap="round" stroke-linejoin="round"/>
<path d="M59 29H68" stroke="#FF9505" stroke-width="4" stroke-linecap="round" stroke-linejoin="round"/>
<path d="M59 24H68" stroke="#FF9505" stroke-width="4" stroke-linecap="round" stroke-linejoin="round"/>
<path d="M59 19H68" stroke="#FF9505" stroke-width="4" stroke-linecap="round" stroke-linejoin="round"/>
<path d="M8 32H15" stroke="#FF9505" stroke-width="4" stroke-linecap="round" stroke-linejoin="round"/>
<path d="M52 71C52 71.55 51.475 72 50.8333 72H46.1667C45.525 72 45 71.55 45 71" stroke="#094910" stroke-width="4" stroke-linecap="round" stroke-linejoin="round"/>
<path d="M24 71C24 71.55 24.525 72 25.1667 72H29.8333C30.475 72 31 71.55 31 71" stroke="#094910" stroke-width="4" stroke-linecap="round" stroke-linejoin="round"/>
<path d="M21 38H3V35" stroke="#094910" stroke-width="4" stroke-linecap="round" stroke-linejoin="round"/>
<path d="M35 24H27V30H35V24Z" stroke="#FF9505" stroke-width="4" stroke-linecap="round" stroke-linejoin="round"/>
<path d="M41 25H42" stroke="#FF9505" stroke-width="4" stroke-linecap="round" stroke-linejoin="round"/>
<path d="M47 25H48" stroke="#FF9505" stroke-width="4" stroke-linecap="round" stroke-linejoin="round"/>
<path d="M54 35H26" stroke="#094910" stroke-width="4" stroke-linecap="round" stroke-linejoin="round"/>
<path d="M54 51H26" stroke="#094910" stroke-width="4" stroke-linecap="round" stroke-linejoin="round"/>
</svg>
