<svg width="76" height="76" viewBox="0 0 76 76" fill="none" xmlns="http://www.w3.org/2000/svg">
<path d="M60 19.1V21.7C60 22.415 59.415 23 58.7 23H48.3C47.585 23 47 22.415 47 21.7V11.3C47 10.585 47.585 10 48.3 10H56.1" stroke="#FF9505" stroke-width="4" stroke-linecap="round" stroke-linejoin="round"/>
<path d="M63 10L60.25 12.6667L54.75 18L52 15.3333" stroke="#094910" stroke-width="4" stroke-linecap="round" stroke-linejoin="round"/>
<path d="M60 40.1V42.7C60 43.415 59.415 44 58.7 44H48.3C47.585 44 47 43.415 47 42.7V32.3C47 31.585 47.585 31 48.3 31H56.1" stroke="#FF9505" stroke-width="4" stroke-linecap="round" stroke-linejoin="round"/>
<path d="M63 31L60.25 33.6667L54.75 39L52 36.3333" stroke="#094910" stroke-width="4" stroke-linecap="round" stroke-linejoin="round"/>
<path d="M60 61.8V64.6C60 65.37 59.415 66 58.7 66H48.3C47.585 66 47 65.37 47 64.6V53.4C47 52.63 47.585 52 48.3 52H56.1" stroke="#FF9505" stroke-width="4" stroke-linecap="round" stroke-linejoin="round"/>
<path d="M63 52L60.25 54.6667L54.75 60L52 57.3333" stroke="#094910" stroke-width="4" stroke-linecap="round" stroke-linejoin="round"/>
<path d="M33.8 48C36.673 48 39 45.6986 39 42.8571V26.4386C39 24.4971 37.726 22.7614 35.867 22.1443C35.022 21.8614 32.5 21 32.5 21L26 27.4286L19.5 21C19.5 21 16.978 21.8614 16.133 22.1443C14.274 22.7614 13 24.4971 13 26.4386V42.8571C13 45.6986 15.327 48 18.2 48" stroke="#094910" stroke-width="4" stroke-linejoin="round"/>
<path d="M26.5 18C30.0899 18 33 15.0899 33 11.5C33 7.91015 30.0899 5 26.5 5C22.9101 5 20 7.91015 20 11.5C20 15.0899 22.9101 18 26.5 18Z" stroke="#094910" stroke-width="4" stroke-linejoin="round"/>
<path d="M34 31V69.6667C34 70.4 33.4 71 32.6667 71H19.3333C18.6 71 18 70.4 18 69.6667V31" stroke="#094910" stroke-width="4" stroke-linecap="round" stroke-linejoin="round"/>
<path d="M26 47V71" stroke="#094910" stroke-width="4" stroke-linecap="round" stroke-linejoin="round"/>
</svg>
