<svg width="20" height="17" viewBox="0 0 20 17" fill="none" xmlns="http://www.w3.org/2000/svg">
<path d="M6.29 16.7534C13.837 16.7534 17.965 10.5004 17.965 5.0784C17.965 4.9004 17.965 4.7234 17.953 4.5484C18.7562 3.96693 19.4493 3.24701 20 2.4224C19.2511 2.7544 18.4566 2.97216 17.643 3.0684C18.4996 2.55546 19.1408 1.74875 19.447 0.798398C18.6417 1.27628 17.7607 1.61313 16.842 1.7944C16.2234 1.13616 15.405 0.700233 14.5136 0.554103C13.6222 0.407974 12.7075 0.559797 11.9111 0.986067C11.1147 1.41234 10.4811 2.08927 10.1083 2.91206C9.7355 3.73485 9.64437 4.65758 9.849 5.5374C8.21759 5.45564 6.6216 5.03172 5.16465 4.29317C3.70769 3.55461 2.42233 2.51792 1.392 1.2504C0.867318 2.1536 0.706589 3.22282 0.942536 4.24036C1.17848 5.25791 1.79337 6.14728 2.662 6.7274C2.00926 6.7085 1.37063 6.5329 0.8 6.2154V6.2674C0.800389 7.21469 1.1284 8.1327 1.7284 8.86576C2.3284 9.59881 3.16347 10.1018 4.092 10.2894C3.48781 10.4541 2.85389 10.4781 2.239 10.3594C2.50116 11.1749 3.01168 11.888 3.69913 12.399C4.38658 12.91 5.21657 13.1934 6.073 13.2094C5.22212 13.878 4.24779 14.3722 3.20573 14.6639C2.16367 14.9556 1.07432 15.039 0 14.9094C1.8766 16.1137 4.06019 16.7525 6.29 16.7494" fill="white"/>
</svg>
