<svg width="73" height="73" viewBox="0 0 73 73" fill="none" xmlns="http://www.w3.org/2000/svg">
<path d="M37.0047 59.3014C47.2047 54.7397 55.1396 54.7397 64.2047 54.7397V8C56.2698 8 47.2047 8 37.0047 12.5617C26.8047 8 17.7396 8 9.80469 8V54.7397C18.8698 54.7397 26.8047 54.7397 37.0047 59.3014Z" stroke="#094910" stroke-width="4" stroke-linecap="round" stroke-linejoin="round"/>
<path d="M57.3998 17.2122C53.1486 17.3853 48.6184 17.8718 43.7998 19.2193" stroke="#FF9505" stroke-width="4" stroke-linecap="round" stroke-linejoin="round"/>
<path d="M16.6045 17.2122C20.8557 17.3853 25.3859 17.8718 30.2045 19.2193" stroke="#FF9505" stroke-width="4" stroke-linecap="round" stroke-linejoin="round"/>
<path d="M57.3998 26.3311C53.1486 26.5042 48.6184 26.9907 43.7998 28.3382" stroke="#FF9505" stroke-width="4" stroke-linecap="round" stroke-linejoin="round"/>
<path d="M16.6045 26.3311C20.8557 26.5042 25.3859 26.9907 30.2045 28.3382" stroke="#FF9505" stroke-width="4" stroke-linecap="round" stroke-linejoin="round"/>
<path d="M57.3998 35.4497C53.1486 35.6228 48.6184 36.1094 43.7998 37.4568" stroke="#FF9505" stroke-width="4" stroke-linecap="round" stroke-linejoin="round"/>
<path d="M16.6045 35.4497C20.8557 35.6228 25.3859 36.1094 30.2045 37.4568" stroke="#FF9505" stroke-width="4" stroke-linecap="round" stroke-linejoin="round"/>
<path d="M57.3998 44.573C53.1486 44.7461 48.6184 45.2327 43.7998 46.5801" stroke="#FF9505" stroke-width="4" stroke-linecap="round" stroke-linejoin="round"/>
<path d="M16.6045 44.573C20.8557 44.7461 25.3859 45.2327 30.2045 46.5801" stroke="#FF9505" stroke-width="4" stroke-linecap="round" stroke-linejoin="round"/>
<path d="M68.7349 14.8401C69.986 14.8401 71 15.86 71 17.1186V59.3013C71 60.5599 69.986 61.5798 68.7349 61.5798H45.2093C44.307 61.5798 43.4419 61.9401 42.8047 62.581L41.3954 63.9987C40.7581 64.6396 39.893 64.9999 38.9907 64.9999H35.0093C34.107 64.9999 33.2419 64.6396 32.6046 63.9987L31.1953 62.581C30.5581 61.9401 29.693 61.5798 28.7907 61.5798H5.26511C4.01395 61.5798 3 60.5599 3 59.3013V17.1186C3 15.86 4.01395 14.8401 5.26511 14.8401" stroke="#094910" stroke-width="4" stroke-linecap="round" stroke-linejoin="round"/>
<path d="M37.0049 12.5618V59.3015" stroke="#094910" stroke-width="4" stroke-linecap="round" stroke-linejoin="round"/>
</svg>
