<svg width="76" height="76" viewBox="0 0 76 76" fill="none" xmlns="http://www.w3.org/2000/svg">
<path d="M40.0909 70H15V6H61V48.6667" stroke="#094910" stroke-width="4" stroke-linecap="round" stroke-linejoin="round"/>
<path d="M61 49C61 52.15 57.85 54.25 45.25 54.25C45.25 66.85 43.15 70 40 70C47.497 70 61 56.5075 61 49Z" stroke="#094910" stroke-width="4" stroke-linecap="round" stroke-linejoin="round"/>
<path d="M40.1333 49H22V15H54V42.625" stroke="#094910" stroke-width="4" stroke-linecap="round" stroke-linejoin="round"/>
<path d="M31.5 28C33.433 28 35 26.433 35 24.5C35 22.567 33.433 21 31.5 21C29.567 21 28 22.567 28 24.5C28 26.433 29.567 28 31.5 28Z" stroke="#FF9505" stroke-width="4" stroke-linecap="round" stroke-linejoin="round"/>
<path d="M27 41L33.5 35L40 41" stroke="#094910" stroke-width="4" stroke-linecap="round" stroke-linejoin="round"/>
<path d="M38 39L43.5 34L49 39" stroke="#094910" stroke-width="4" stroke-linecap="round" stroke-linejoin="round"/>
<path d="M33 54H40" stroke="#FF9505" stroke-width="4" stroke-linecap="round" stroke-linejoin="round"/>
</svg>
