<svg width="76" height="76" viewBox="0 0 76 76" fill="none" xmlns="http://www.w3.org/2000/svg">
<path d="M50.6906 63.3094C64.6686 56.3006 70.3182 39.2874 63.3094 25.3094C56.3006 11.3314 39.2874 5.68176 25.3094 12.6906C11.3314 19.6994 5.68177 36.7126 12.6906 50.6906C19.6994 64.6686 36.7126 70.3182 50.6906 63.3094Z" stroke="#094910" stroke-width="4" stroke-linecap="round" stroke-linejoin="round"/>
<path d="M38.0009 60.2925C25.7069 60.2925 15.7109 50.2917 15.7109 38.0025C15.7109 25.7133 25.7069 15.7125 38.0009 15.7125C50.295 15.7125 60.2909 25.7084 60.2909 38.0025C60.2909 50.2966 50.2901 60.2925 38.0009 60.2925Z" stroke="#FF9505" stroke-width="4" stroke-linecap="round" stroke-linejoin="round"/>
<path d="M42.6221 26.4144C42.6221 28.9658 40.5528 31.0351 38.0015 31.0351C35.4502 31.0351 33.3809 28.9658 33.3809 26.4144C33.3809 23.8631 35.4502 21.7938 38.0015 21.7938C40.5528 21.7938 42.6221 23.8631 42.6221 26.4144Z" stroke="#094910" stroke-width="5" stroke-linecap="round" stroke-linejoin="round"/>
<path d="M42.6221 49.6488C42.6221 52.2001 40.5528 54.2694 38.0015 54.2694C35.4502 54.2694 33.3809 52.2001 33.3809 49.6488C33.3809 47.0975 35.4502 45.0282 38.0015 45.0282C40.5528 45.0282 42.6221 47.0975 42.6221 49.6488Z" stroke="#094910" stroke-width="5" stroke-linecap="round" stroke-linejoin="round"/>
<path d="M49.6187 42.6522C47.0673 42.6522 44.998 40.5829 44.998 38.0316C44.998 35.4803 47.0673 33.411 49.6187 33.411C52.17 33.411 54.2393 35.4803 54.2393 38.0316C54.2393 40.5829 52.17 42.6522 49.6187 42.6522Z" stroke="#094910" stroke-width="4" stroke-linecap="round" stroke-linejoin="round"/>
<path d="M26.3843 42.6522C23.833 42.6522 21.7637 40.5829 21.7637 38.0316C21.7637 35.4803 23.833 33.411 26.3843 33.411C28.9356 33.411 31.0049 35.4803 31.0049 38.0316C31.0049 40.5829 28.9356 42.6522 26.3843 42.6522Z" stroke="#094910" stroke-width="4" stroke-linecap="round" stroke-linejoin="round"/>
<path d="M36.4922 38.0314H39.5061" stroke="#FF9505" stroke-width="4" stroke-linecap="round" stroke-linejoin="round"/>
<path d="M38.0027 66.315H4.00781" stroke="#094910" stroke-width="4" stroke-linecap="round" stroke-linejoin="round"/>
<path d="M13.5994 60.2923H7.02148" stroke="#094910" stroke-width="4" stroke-linecap="round" stroke-linejoin="round"/>
</svg>
