<svg width="76" height="76" viewBox="0 0 76 76" fill="none" xmlns="http://www.w3.org/2000/svg">
<path d="M3 58V60.6667C3 63.6133 5.32037 66 8.18518 66H67.8148C70.6796 66 73 63.6133 73 60.6667V58H43.1852C43.1852 59.4667 42.0185 60.6667 40.5926 60.6667H35.4074C33.9815 60.6667 32.8148 59.4667 32.8148 58H3Z" stroke="#094910" stroke-width="4" stroke-linejoin="round"/>
<path d="M18 20H12.8571C10.7229 20 9 21.6973 9 23.8V58" stroke="#094910" stroke-width="4" stroke-linecap="round" stroke-linejoin="round"/>
<path d="M59 20H63.5714C65.4686 20 67 21.6973 67 23.8V58" stroke="#094910" stroke-width="4" stroke-linecap="round" stroke-linejoin="round"/>
<path d="M19.0127 33.1097V28.9156C19.0127 28.3961 19.4305 27.978 19.9497 27.978H22.3682C22.8114 27.978 23.1786 27.6739 23.2799 27.2431C23.6471 25.8239 24.2043 24.4935 24.926 23.2644C25.1539 22.8843 25.1033 22.4155 24.7994 22.0987L23.2546 20.5529C22.7101 20.008 22.7101 19.4125 23.0773 19.045L26.0403 16.08C26.4075 15.7126 27.0027 15.7126 27.3699 16.08L29.0793 17.7906C29.3959 18.1074 29.8644 18.1454 30.2443 17.9173C31.4725 17.1951 32.8021 16.6249 34.2203 16.2701C34.6508 16.1561 34.9547 15.8013 34.9547 15.3578V13.1911C34.9547 12.4181 35.3725 12 35.8917 12H40.083C40.6021 12 41.02 12.4181 41.02 12.9376V15.3451C41.02 15.7886 41.3239 16.1561 41.7544 16.2574C43.1726 16.6249 44.5022 17.1824 45.7304 17.9046C46.1103 18.1327 46.5788 18.082 46.8954 17.7779L48.4402 16.2321C48.9847 15.6872 49.5798 15.6872 49.947 16.0547L52.91 19.0197C53.2772 19.3871 53.2772 19.9827 52.91 20.3501L51.2006 22.0607C50.884 22.3775 50.846 22.8463 51.074 23.2264C51.7957 24.4555 52.3655 25.7859 52.7201 27.2051C52.8341 27.6359 53.1886 27.94 53.6318 27.94H55.8097C56.5821 27.94 57 28.3581 57 28.8776V33.0717C57 33.5912 56.5821 34.0093 56.063 34.0093H53.6444C53.2013 34.0093 52.8341 34.3134 52.7328 34.7442C52.3655 36.1634 51.8084 37.4938 51.0866 38.7229C50.8587 39.103 50.9094 39.5719 51.2133 39.8886L52.7581 41.4345C53.3026 41.9793 53.3026 42.5749 52.9354 42.9423L49.9723 45.9073C49.6051 46.2748 49.01 46.2748 48.6428 45.9073L46.9334 44.1967C46.6168 43.88 46.1483 43.8419 45.7684 44.07C44.5402 44.7923 43.2106 45.3625 41.7924 45.7172C41.3619 45.8313 41.058 46.1861 41.058 46.6295V48.9863C41.058 49.6579 40.7161 50 40.2982 50H35.917C35.3979 50 34.98 49.5819 34.98 49.0624V46.6549C34.98 46.2114 34.6761 45.8439 34.2456 45.7426C32.8274 45.3751 31.4978 44.8176 30.2696 44.0954C29.8897 43.8673 29.4212 43.918 29.1046 44.2221L27.5598 45.7679C27.0153 46.3128 26.4202 46.3128 26.053 45.9453L23.09 42.9803C22.7228 42.6129 22.7228 42.0173 23.09 41.6499L24.7994 39.9393C25.116 39.6225 25.1539 39.1537 24.926 38.7736C24.2043 37.5445 23.6345 36.2141 23.2799 34.7949C23.1659 34.3641 22.8114 34.06 22.3682 34.06H20.1903C19.4179 34.06 19 33.6419 19 33.1224L19.0127 33.1097Z" stroke="#FF9505" stroke-width="4" stroke-linejoin="round"/>
<path d="M38 39C42.4183 39 46 35.4183 46 31C46 26.5817 42.4183 23 38 23C33.5817 23 30 26.5817 30 31C30 35.4183 33.5817 39 38 39Z" stroke="#FF9505" stroke-width="4" stroke-linecap="round" stroke-linejoin="round"/>
</svg>
