<svg width="20" height="21" viewBox="0 0 20 21" fill="none" xmlns="http://www.w3.org/2000/svg">
<path fill-rule="evenodd" clip-rule="evenodd" d="M10.315 0.5C12.745 0.5 13.099 0.513 14.123 0.56C15.187 0.609 15.914 0.778 16.55 1.025C17.2175 1.27587 17.8222 1.66936 18.322 2.178C18.8306 2.67777 19.2241 3.2825 19.475 3.95C19.722 4.586 19.891 5.313 19.94 6.377C19.988 7.444 20 7.784 20 10.5V10.58C20 13.223 19.988 13.567 19.94 14.623C19.891 15.687 19.722 16.414 19.475 17.05C19.2241 17.7175 18.8306 18.3222 18.322 18.822C17.8222 19.3306 17.2175 19.7241 16.55 19.975C15.914 20.222 15.187 20.391 14.123 20.44C13.056 20.488 12.716 20.5 10 20.5H9.92C7.277 20.5 6.933 20.488 5.877 20.44C4.813 20.391 4.086 20.222 3.45 19.975C2.7825 19.7241 2.17777 19.3306 1.678 18.822C1.16936 18.3222 0.775874 17.7175 0.525 17.05C0.278 16.414 0.109 15.687 0.0599999 14.623C0.0129999 13.599 0 13.244 0 10.815V10.185C0 7.755 0.0129999 7.401 0.0599999 6.377C0.109 5.313 0.278 4.586 0.525 3.95C0.775874 3.2825 1.16936 2.67777 1.678 2.178C2.17777 1.66936 2.7825 1.27587 3.45 1.025C4.086 0.778 4.813 0.609 5.877 0.56C6.901 0.513 7.256 0.5 9.685 0.5H10.315ZM10.234 2.302H9.766C7.31 2.302 6.982 2.313 5.959 2.36C4.984 2.405 4.455 2.567 4.102 2.704C3.635 2.886 3.302 3.102 2.952 3.452C2.602 3.802 2.386 4.135 2.204 4.602C2.067 4.955 1.904 5.484 1.86 6.459C1.813 7.482 1.802 7.81 1.802 10.266V10.734C1.802 13.19 1.813 13.518 1.86 14.541C1.905 15.516 2.067 16.045 2.204 16.398C2.386 16.864 2.603 17.198 2.952 17.548C3.302 17.898 3.635 18.114 4.102 18.296C4.455 18.433 4.984 18.596 5.959 18.64C7.013 18.688 7.329 18.698 10 18.698H10.08C12.677 18.698 12.997 18.688 14.04 18.64C15.016 18.595 15.545 18.433 15.898 18.296C16.364 18.114 16.698 17.898 17.048 17.548C17.398 17.198 17.614 16.865 17.796 16.398C17.933 16.045 18.096 15.516 18.14 14.541C18.188 13.486 18.198 13.171 18.198 10.5V10.42C18.198 7.823 18.188 7.503 18.14 6.46C18.095 5.484 17.933 4.955 17.796 4.602C17.6358 4.16757 17.3802 3.7746 17.048 3.452C16.7254 3.11986 16.3324 2.86426 15.898 2.704C15.545 2.567 15.016 2.404 14.041 2.36C13.018 2.313 12.69 2.302 10.234 2.302ZM10 5.365C10.6743 5.365 11.3421 5.49782 11.9651 5.75588C12.5881 6.01394 13.1542 6.39218 13.631 6.86901C14.1078 7.34584 14.4861 7.91191 14.7441 8.53492C15.0022 9.15793 15.135 9.82566 15.135 10.5C15.135 11.1743 15.0022 11.8421 14.7441 12.4651C14.4861 13.0881 14.1078 13.6542 13.631 14.131C13.1542 14.6078 12.5881 14.9861 11.9651 15.2441C11.3421 15.5022 10.6743 15.635 10 15.635C8.63811 15.635 7.33201 15.094 6.36901 14.131C5.40601 13.168 4.865 11.8619 4.865 10.5C4.865 9.13811 5.40601 7.83201 6.36901 6.86901C7.33201 5.90601 8.63811 5.365 10 5.365ZM10 7.167C9.11603 7.167 8.26827 7.51815 7.64321 8.14321C7.01815 8.76827 6.667 9.61603 6.667 10.5C6.667 11.384 7.01815 12.2317 7.64321 12.8568C8.26827 13.4818 9.11603 13.833 10 13.833C10.884 13.833 11.7317 13.4818 12.3568 12.8568C12.9818 12.2317 13.333 11.384 13.333 10.5C13.333 9.61603 12.9818 8.76827 12.3568 8.14321C11.7317 7.51815 10.884 7.167 10 7.167ZM15.338 3.962C15.6563 3.962 15.9615 4.08843 16.1865 4.31347C16.4116 4.53852 16.538 4.84374 16.538 5.162C16.538 5.48026 16.4116 5.78548 16.1865 6.01053C15.9615 6.23557 15.6563 6.362 15.338 6.362C15.0197 6.362 14.7145 6.23557 14.4895 6.01053C14.2644 5.78548 14.138 5.48026 14.138 5.162C14.138 4.84374 14.2644 4.53852 14.4895 4.31347C14.7145 4.08843 15.0197 3.962 15.338 3.962Z" fill="white"/>
</svg>
