<svg width="196" height="75" viewBox="0 0 196 75" fill="none" xmlns="http://www.w3.org/2000/svg">
<g clip-path="url(#clip0_146_1448)">
<path d="M9.26 20.9275C9.23861 20.7554 9.19584 20.5618 9.19584 20.3683C9.15307 16.5398 12.8956 13.378 17.5577 13.3135C17.8784 13.3135 18.1778 13.3565 18.4986 13.378C18.4986 13.292 18.4772 13.206 18.4772 13.1199C18.3917 6.68889 24.3797 1.39781 31.8433 1.31177C38.7937 1.22574 44.5678 5.67799 45.3805 11.4638C45.5302 11.4423 45.6371 11.4207 45.8296 11.4207C49.4865 11.1626 51.4968 13.3565 52.117 16.3462C52.4164 17.7873 52.4164 20.0672 51.5182 21.1426C56.223 23.0998 59.7517 27.337 59.7517 32.0043C59.7517 40.9304 54.6832 45.5332 44.91 45.06C39.0075 44.7804 33.4686 41.4035 31.1162 37.2524C29.2129 42.1778 25.5131 44.7589 19.6535 45.3396C11.5269 46.1354 3.78526 41.3605 3.05814 33.7035C2.5235 28.3264 4.81177 23.7236 9.26 20.9275Z" fill="#16631E"/>
<path d="M63.4086 72.6982C63.2375 71.6873 62.2966 70.9775 61.2701 70.9775H60.5429C57.6773 67.0415 58.1478 61.7289 58.1691 61.6644C58.1691 61.6644 58.2975 61.0191 58.1478 60.804C57.9981 60.589 57.2495 60.4384 57.2495 60.4384C57.2282 60.4384 54.3411 59.9007 49.7432 57.4917C45.9579 55.513 40.5473 53.6847 36.2488 56.2012C35.65 56.5454 35.1153 56.997 34.6235 57.4702C34.4952 55.4699 34.3668 53.018 34.3455 51.706C34.3027 49.7917 34.0033 44.5652 35.094 42.4788C36.1846 40.3925 42.3651 37.1877 42.3651 37.1877C42.3651 37.1877 49.4438 34.026 50.8338 32.628C51.4754 31.9827 53.229 29.5522 50.235 31.574C48.7167 32.6064 47.2838 33.1872 46.2787 33.3592C45.188 33.5528 45.2308 32.0902 45.0383 30.8858C44.8458 29.6813 45.5516 27.1218 44.632 28.7994C44.2684 29.4662 44.3326 30.8858 43.5413 33.1872C42.75 35.4886 35.4361 39.2741 33.3403 38.5428C32.2069 38.1341 32.656 28.0036 32.4421 24.5408C32.271 21.6801 34.0461 15.8944 35.0084 14.5824C35.9066 13.3779 36.484 11.2485 34.4738 13.5069C33.2976 14.8405 32.2924 17.6796 31.6081 18.6905C30.9237 19.6799 30.1752 18.3894 29.5764 17.4C28.9776 16.4106 27.2668 14.948 26.4114 14.6899C23.8451 13.9371 25.4276 14.991 26.5183 15.8944C27.609 16.7977 30.0255 20.4542 30.1325 22.2394C30.2394 24.0246 30.2822 34.9939 29.9828 36.3919C29.6834 37.79 29.0846 39.0805 28.2505 38.5643C27.2026 37.919 25.1924 35.8327 20.958 31.9397C20.0812 31.1439 19.1616 29.8534 18.6483 28.5413C18.1565 27.2508 18.1351 23.6589 17.6004 25.8528C17.301 27.1218 17.5791 29.9609 17.5791 30.7567C17.5791 31.5525 15.5047 31.1439 13.9435 31.4235C12.2326 31.7461 10.9923 32.4989 11.42 32.5204C11.9974 32.5634 14.9486 32.7355 16.3387 32.757C18.2848 32.7785 20.5731 33.6173 22.455 35.5101C24.3369 37.4028 28.4216 41.2098 29.1915 47.942C29.4481 50.2434 29.1701 54.6311 28.9135 57.5993C28.3788 57.0616 27.8228 56.5884 27.2026 56.2227C22.9041 53.6847 17.4935 55.513 13.7083 57.5132C9.11032 59.9007 6.22326 60.4384 6.20187 60.4384C6.20187 60.4384 5.58168 60.589 5.4106 60.7825C5.2609 60.9976 5.2609 61.6644 5.2609 61.6644C5.2609 61.7289 5.75277 67.02 2.88709 70.9775H2.20274C1.15484 70.9775 0.149715 71.6873 0.0214005 72.7412C-0.149685 74.0102 0.812672 73.7736 2.05304 73.7736H27.3309C27.9725 74.8491 28.999 74.9996 30.1539 74.9996H31.715H33.2762C34.431 74.9996 35.4575 74.8491 36.0991 73.7736H61.377C62.6174 73.7736 63.6225 73.9887 63.4086 72.6982ZM14.1146 66.2242C10.4362 67.9879 7.97688 68.0954 6.80067 68.0094C7.48501 65.7295 7.57055 63.6432 7.54917 62.4602C8.83231 62.1161 11.3558 61.2987 14.7348 59.5135C17.408 58.1155 22.455 56.0507 26.0478 58.18C28.1436 59.406 29.5337 61.901 30.1752 65.6004C27.3096 61.6859 21.7493 62.5677 14.1146 66.2242ZM51.8604 66.2242C44.0118 62.4817 36.5696 61.6429 33.1906 65.9231C33.8108 62.0515 35.2009 59.449 37.3608 58.1585C40.9536 56.0507 46.0007 58.094 48.6739 59.492C52.0528 61.2772 54.555 62.0945 55.8595 62.4387C55.8381 63.6217 55.945 65.7295 56.608 67.9879C55.8809 67.8803 54.4908 67.4717 51.8604 66.2242Z" fill="#9C6615"/>
<path d="M76.3684 11.1843H80.1536V23.8958C80.1536 24.326 80.3033 24.6701 80.5814 24.9497C80.8808 25.2293 81.2443 25.3799 81.6934 25.3799C82.1639 25.3799 82.5488 25.2293 82.8482 24.9497C83.1476 24.6701 83.2973 24.326 83.2973 23.8958V11.1843H87.0826C87.5103 11.1843 87.8525 11.0552 88.1305 10.7971C88.4085 10.539 88.5582 10.2164 88.5582 9.78623C88.5582 9.35606 88.4085 9.03344 88.1305 8.77534C87.8525 8.51723 87.4889 8.38818 87.0826 8.38818H76.3684C75.9407 8.38818 75.5985 8.51723 75.3205 8.77534C75.0425 9.03344 74.8928 9.35606 74.8928 9.78623C74.8928 10.2164 75.0425 10.539 75.3205 10.7971C75.5985 11.0552 75.9407 11.1843 76.3684 11.1843Z" fill="#094910"/>
<path d="M94.033 25.6381C94.8456 25.6381 95.6155 25.5091 96.364 25.2295C97.1125 24.9714 97.7113 24.6488 98.1176 24.3046C98.5667 23.939 98.802 23.5518 98.802 23.1217C98.802 22.799 98.695 22.5194 98.4598 22.2828C98.2246 22.0462 97.9252 21.9172 97.583 21.9172C97.3264 21.9172 97.0483 21.9817 96.7703 22.1323C96.5992 22.2398 96.3854 22.3474 96.1715 22.4764C95.9577 22.6055 95.6583 22.7345 95.3161 22.8205C94.9525 22.9281 94.4821 22.9711 93.8833 22.9711C93.2417 22.9711 92.6215 22.8205 92.0655 22.4979C91.4881 22.1753 91.0176 21.7236 90.6754 21.1214C90.4615 20.7772 90.3332 20.3686 90.2477 19.9169H98.2032C98.5881 19.9169 98.9303 19.7878 99.2083 19.5513C99.5077 19.3147 99.6574 18.992 99.6574 18.6049C99.6574 17.723 99.4863 16.9057 99.1655 16.1314C98.8234 15.3356 98.3743 14.6473 97.8182 14.0666C97.2622 13.4859 96.5992 13.0127 95.8721 12.6685C95.145 12.3244 94.3537 12.1523 93.5411 12.1523C92.4718 12.1523 91.4667 12.432 90.5257 12.9697C89.5847 13.5289 88.8148 14.3032 88.216 15.3356C87.6386 16.368 87.3392 17.6155 87.3392 19.0566C87.3392 20.304 87.6172 21.4225 88.1519 22.4119C88.6865 23.4013 89.4564 24.1756 90.4615 24.7563C91.4667 25.337 92.6643 25.6381 94.033 25.6381ZM91.1031 15.6797C91.4025 15.3786 91.7661 15.1635 92.1938 15.0345C92.6215 14.9054 93.0706 14.8409 93.5411 14.8409C94.033 14.8409 94.5034 14.9484 94.9525 15.1635C95.4016 15.3786 95.7652 15.6797 96.0646 16.0454C96.364 16.411 96.5351 16.8412 96.5565 17.3144V17.4864H90.2477C90.2905 17.2929 90.3118 17.0993 90.376 16.9272C90.5685 16.3895 90.8037 15.9808 91.1031 15.6797Z" fill="#094910"/>
<path d="M110.179 25.3155C110.906 25.1219 111.505 24.8423 111.954 24.5197C112.403 24.1971 112.639 23.8099 112.639 23.4228C112.639 23.0356 112.532 22.713 112.296 22.4334C112.083 22.1753 111.74 22.0247 111.334 22.0247C110.97 22.0247 110.714 22.0893 110.543 22.2398C110.372 22.3904 110.158 22.5194 109.944 22.6485C109.751 22.756 109.516 22.8205 109.217 22.8636C108.917 22.9066 108.575 22.9281 108.169 22.9281C107.442 22.9281 106.8 22.756 106.244 22.3904C105.688 22.0247 105.26 21.5515 104.94 20.9493C104.619 20.3471 104.469 19.6588 104.469 18.863C104.469 18.0672 104.619 17.3789 104.918 16.7552C105.218 16.1529 105.667 15.6582 106.223 15.3141C106.8 14.9484 107.485 14.7764 108.319 14.7764C108.49 14.7764 108.725 14.7979 109.046 14.8624C109.367 14.9269 109.623 14.9915 109.773 15.099C109.944 15.2065 110.094 15.2926 110.222 15.4216C110.35 15.5292 110.5 15.6367 110.671 15.7012C110.842 15.7658 111.056 15.8088 111.313 15.8088C111.676 15.8088 111.954 15.6582 112.147 15.3786C112.339 15.099 112.446 14.7979 112.446 14.4753C112.446 13.9806 112.254 13.5719 111.869 13.2278C111.548 12.9051 111.013 12.647 110.329 12.4535C109.645 12.2599 108.853 12.1523 107.934 12.1523C106.693 12.1523 105.603 12.432 104.64 13.0127C103.678 13.5934 102.929 14.3892 102.395 15.4001C101.86 16.411 101.582 17.5725 101.582 18.906C101.582 20.175 101.839 21.3149 102.352 22.3258C102.865 23.3367 103.571 24.1541 104.512 24.7348C105.453 25.337 106.544 25.6166 107.827 25.6166C108.661 25.6381 109.452 25.5306 110.179 25.3155Z" fill="#094910"/>
<path d="M119.054 20.261L123.396 24.8853C123.695 25.2079 124.037 25.38 124.465 25.38C124.786 25.38 125.106 25.2509 125.449 24.9713C125.791 24.6917 125.94 24.3691 125.94 23.9389C125.94 23.5302 125.791 23.1646 125.491 22.842L121.257 18.2177L124.893 14.8408C125.278 14.4967 125.47 14.131 125.47 13.7439C125.47 13.4428 125.342 13.1632 125.064 12.8405C124.786 12.5394 124.465 12.3889 124.101 12.3889C123.695 12.3889 123.353 12.5394 123.032 12.8405L117.857 17.852V8.90449C117.857 8.49583 117.728 8.13019 117.45 7.85058C117.172 7.57097 116.83 7.42041 116.424 7.42041C115.996 7.42041 115.654 7.57097 115.376 7.85058C115.098 8.13019 114.97 8.49583 114.97 8.90449V23.8959C114.97 24.3261 115.098 24.6702 115.376 24.9498C115.654 25.2294 115.996 25.38 116.424 25.38C116.852 25.38 117.194 25.2294 117.45 24.9498C117.728 24.6702 117.857 24.3261 117.857 23.8959V21.3579L119.054 20.261Z" fill="#094910"/>
<path d="M87.1254 45.0603C86.8046 45.0173 86.4624 45.0603 86.1203 45.2323C85.7139 45.4474 85.3076 45.598 84.8585 45.6625C84.4308 45.7485 83.9817 45.7916 83.554 45.7916C82.7627 45.7916 82.0356 45.684 81.3513 45.4474C80.6669 45.2108 80.0895 44.8452 79.5976 44.372C79.1058 43.8773 78.6994 43.2751 78.4214 42.5438C78.1434 41.8125 77.9937 40.9521 77.9937 39.9628C77.9937 39.1239 78.122 38.3496 78.3573 37.6614C78.6139 36.9731 78.9775 36.3708 79.4479 35.8546C79.9398 35.3384 80.5172 34.9513 81.2016 34.6717C81.8859 34.3921 82.6558 34.263 83.5326 34.263C84.0031 34.263 84.4522 34.306 84.8799 34.4136C85.3076 34.4996 85.7139 34.6502 86.0989 34.8222C86.4411 34.9943 86.7618 35.0588 87.104 35.0158C87.4248 34.9943 87.7028 34.8222 87.9167 34.5426C88.2161 34.177 88.3444 33.7468 88.2588 33.2951C88.1947 32.8435 87.9381 32.5208 87.5317 32.3057C86.9329 32.0046 86.2914 31.768 85.6284 31.596C84.9655 31.4239 84.2597 31.3594 83.554 31.3594C82.2922 31.3594 81.1374 31.5745 80.0895 32.0046C79.0202 32.4348 78.1006 33.037 77.3308 33.7898C76.5395 34.5641 75.9407 35.4675 75.513 36.5214C75.0853 37.5753 74.8714 38.7153 74.8714 39.9628C74.8714 41.4038 75.1066 42.6728 75.5771 43.7698C76.0476 44.8667 76.6892 45.77 77.5018 46.5013C78.3145 47.2326 79.2341 47.7703 80.282 48.1575C81.3085 48.5231 82.4206 48.7167 83.5754 48.7167C84.0459 48.7167 84.495 48.6737 84.9441 48.6092C85.3932 48.5446 85.8423 48.4371 86.2914 48.2865C86.7405 48.1575 87.1682 47.9639 87.5745 47.7703C87.9808 47.5768 88.2161 47.2541 88.3016 46.8455C88.3872 46.4368 88.2802 46.0066 87.9594 45.598C87.7456 45.2754 87.4676 45.1033 87.1254 45.0603Z" fill="#094910"/>
<path d="M100.491 37.1452C99.9354 36.5645 99.2725 36.0913 98.5453 35.7472C97.8182 35.403 97.027 35.231 96.2143 35.231C95.145 35.231 94.1399 35.5106 93.1989 36.0483C92.258 36.6075 91.4881 37.3818 90.8893 38.4142C90.3119 39.4466 90.0125 40.6941 90.0125 42.1352C90.0125 43.3827 90.2905 44.5011 90.8251 45.4905C91.3598 46.4799 92.1296 47.2542 93.1348 47.8349C94.1399 48.4156 95.3161 48.6953 96.6848 48.6953C97.4974 48.6953 98.2673 48.5662 99.0158 48.2866C99.7643 48.0285 100.363 47.7059 100.769 47.3617C101.219 46.9961 101.454 46.6089 101.454 46.1788C101.454 45.8561 101.347 45.5765 101.112 45.3399C100.876 45.1033 100.577 44.9743 100.235 44.9743C99.9782 44.9743 99.7002 45.0388 99.4222 45.1894C99.2511 45.2754 99.0372 45.4045 98.8234 45.5335C98.6095 45.6626 98.3101 45.7916 97.9679 45.8776C97.6044 45.9852 97.1339 46.0282 96.5351 46.0282C95.8935 46.0282 95.2947 45.8776 94.7173 45.555C94.1399 45.2324 93.6694 44.7807 93.3272 44.1785C93.1134 43.8343 92.9851 43.4257 92.8995 42.974H100.855C101.24 42.974 101.582 42.845 101.86 42.6084C102.16 42.3718 102.309 42.0491 102.309 41.662C102.309 40.7801 102.138 39.9628 101.817 39.1885C101.497 38.4142 101.047 37.7259 100.491 37.1452ZM93.7763 38.7583C94.0757 38.4572 94.4393 38.2421 94.867 38.1131C95.2947 37.984 95.7438 37.9195 96.2143 37.9195C96.7062 37.9195 97.1767 38.0271 97.6258 38.2421C98.0749 38.4572 98.4384 38.7583 98.7378 39.124C99.0372 39.4896 99.2083 39.9198 99.2297 40.393V40.5651H92.9209C92.9637 40.3715 92.9851 40.1779 93.0492 40.0058C93.2417 39.4681 93.4769 39.0595 93.7763 38.7583Z" fill="#094910"/>
<path d="M114.478 35.9838C113.858 35.4891 112.959 35.231 111.762 35.231C111.206 35.231 110.714 35.317 110.243 35.4891C109.773 35.6611 109.367 35.8762 108.982 36.1558C108.618 36.4354 108.297 36.7365 108.019 37.0377C107.912 37.1667 107.848 37.2958 107.763 37.4033V36.9516C107.763 36.543 107.634 36.1773 107.356 35.8977C107.078 35.6181 106.736 35.4676 106.33 35.4676C105.923 35.4676 105.56 35.6181 105.303 35.8977C105.025 36.1773 104.897 36.543 104.897 36.9516V46.9746C104.897 47.4047 105.025 47.7489 105.303 48.0285C105.581 48.3081 105.923 48.4587 106.33 48.4587C106.736 48.4587 107.1 48.3081 107.356 48.0285C107.634 47.7489 107.763 47.4047 107.763 46.9746V40.7586C107.763 40.2209 107.891 39.7477 108.105 39.3176C108.34 38.8874 108.682 38.5433 109.11 38.2852C109.559 38.0271 110.094 37.898 110.735 37.898C111.398 37.898 111.911 38.0271 112.254 38.2852C112.596 38.5433 112.852 38.8874 112.981 39.3176C113.109 39.7477 113.195 40.2209 113.195 40.7586V46.9746C113.195 47.4047 113.323 47.7489 113.601 48.0285C113.879 48.3081 114.221 48.4587 114.649 48.4587C115.077 48.4587 115.419 48.3081 115.675 48.0285C115.953 47.7489 116.082 47.4047 116.082 46.9746V40.7586C116.082 39.7477 115.953 38.8229 115.739 37.984C115.526 37.1452 115.098 36.4784 114.478 35.9838Z" fill="#094910"/>
<path d="M125.106 38.3926C125.491 38.3926 125.812 38.2635 126.069 38.0269C126.325 37.7904 126.454 37.4677 126.454 37.1021C126.454 36.7149 126.325 36.3923 126.069 36.1342C125.812 35.8761 125.491 35.747 125.106 35.747H123.396V34.1984C123.396 33.7683 123.267 33.4241 122.989 33.1445C122.733 32.8649 122.39 32.7144 121.963 32.7144C121.535 32.7144 121.193 32.8649 120.915 33.1445C120.637 33.4241 120.487 33.7683 120.487 34.1984V35.747H119.375C118.99 35.747 118.669 35.8761 118.413 36.1127C118.156 36.3708 118.028 36.6719 118.028 37.0376C118.028 37.4247 118.156 37.7473 118.413 38.0054C118.669 38.2635 118.99 38.3926 119.375 38.3926H120.487V45.0817C120.487 45.8775 120.615 46.5013 120.851 46.953C121.086 47.4046 121.385 47.7488 121.749 47.9638C122.112 48.1789 122.497 48.3295 122.904 48.3725C123.31 48.437 123.695 48.4585 124.016 48.4585C124.572 48.4585 125.106 48.308 125.598 48.0284C126.09 47.7273 126.325 47.3616 126.325 46.9099C126.325 46.5443 126.24 46.2432 126.047 46.0281C125.855 45.813 125.662 45.7055 125.427 45.7055C125.213 45.7055 125.042 45.7485 124.871 45.813C124.7 45.8775 124.529 45.9205 124.337 45.9205C124.165 45.9205 123.994 45.899 123.845 45.813C123.695 45.7485 123.567 45.6409 123.481 45.4904C123.396 45.3398 123.353 45.1677 123.353 44.9312V38.3496H125.106V38.3926Z" fill="#094910"/>
<path d="M138.857 37.1452C138.301 36.5645 137.638 36.0913 136.911 35.7472C136.184 35.403 135.393 35.231 134.58 35.231C133.511 35.231 132.506 35.5106 131.565 36.0483C130.624 36.6075 129.854 37.3818 129.255 38.4142C128.678 39.4466 128.378 40.6941 128.378 42.1352C128.378 43.3827 128.656 44.5011 129.191 45.4905C129.726 46.4799 130.496 47.2542 131.501 47.8349C132.506 48.4156 133.682 48.6953 135.051 48.6953C135.863 48.6953 136.633 48.5662 137.382 48.2866C138.13 48.0285 138.729 47.7059 139.135 47.3617C139.585 46.9961 139.82 46.6089 139.82 46.1788C139.82 45.8561 139.713 45.5765 139.478 45.3399C139.242 45.1033 138.943 44.9743 138.601 44.9743C138.344 44.9743 138.066 45.0388 137.788 45.1894C137.617 45.2754 137.403 45.4045 137.189 45.5335C136.975 45.6626 136.676 45.7916 136.334 45.8776C135.97 45.9852 135.5 46.0282 134.901 46.0282C134.259 46.0282 133.661 45.8776 133.083 45.555C132.506 45.2324 132.035 44.7807 131.693 44.1785C131.479 43.8343 131.351 43.4257 131.265 42.974H139.221C139.606 42.974 139.948 42.845 140.226 42.6084C140.526 42.3718 140.675 42.0491 140.675 41.662C140.675 40.7801 140.504 39.9628 140.183 39.1885C139.863 38.4142 139.435 37.7259 138.857 37.1452ZM132.164 38.7583C132.463 38.4572 132.827 38.2421 133.254 38.1131C133.682 37.984 134.131 37.9195 134.602 37.9195C135.094 37.9195 135.564 38.0271 136.013 38.2421C136.462 38.4572 136.826 38.7583 137.125 39.124C137.425 39.4896 137.596 39.9198 137.617 40.393V40.5651H131.308C131.351 40.3715 131.372 40.1779 131.437 40.0058C131.608 39.4681 131.843 39.0595 132.164 38.7583Z" fill="#094910"/>
<path d="M152.844 35.9838C152.223 35.4891 151.325 35.231 150.128 35.231C149.572 35.231 149.08 35.317 148.609 35.4891C148.139 35.6611 147.732 35.8762 147.348 36.1558C146.984 36.4354 146.663 36.7365 146.385 37.0377C146.278 37.1667 146.214 37.2958 146.129 37.4033V36.9516C146.129 36.543 146 36.1773 145.722 35.8977C145.444 35.6181 145.102 35.4676 144.696 35.4676C144.289 35.4676 143.926 35.6181 143.669 35.8977C143.391 36.1773 143.263 36.543 143.263 36.9516V46.9746C143.263 47.4047 143.391 47.7489 143.669 48.0285C143.947 48.3081 144.289 48.4587 144.696 48.4587C145.102 48.4587 145.466 48.3081 145.722 48.0285C146 47.7489 146.129 47.4047 146.129 46.9746V40.7586C146.129 40.2209 146.257 39.7477 146.471 39.3176C146.706 38.8874 147.048 38.5433 147.476 38.2852C147.925 38.0271 148.46 37.898 149.101 37.898C149.764 37.898 150.277 38.0271 150.62 38.2852C150.983 38.5433 151.218 38.8874 151.347 39.3176C151.475 39.7477 151.561 40.2209 151.561 40.7586V46.9746C151.561 47.4047 151.689 47.7489 151.967 48.0285C152.245 48.3081 152.587 48.4587 153.015 48.4587C153.442 48.4587 153.785 48.3081 154.041 48.0285C154.319 47.7489 154.448 47.4047 154.448 46.9746V40.7586C154.448 39.7477 154.319 38.8229 154.105 37.984C153.892 37.1452 153.464 36.4784 152.844 35.9838Z" fill="#094910"/>
<path d="M167.236 35.9838C166.616 35.4891 165.718 35.231 164.52 35.231C163.964 35.231 163.472 35.317 163.002 35.4891C162.531 35.6611 162.125 35.8762 161.74 36.1558C161.377 36.4354 161.056 36.7365 160.778 37.0377C160.671 37.1667 160.607 37.2958 160.521 37.4033V36.9516C160.521 36.543 160.393 36.1773 160.115 35.8977C159.837 35.6181 159.495 35.4676 159.088 35.4676C158.682 35.4676 158.318 35.6181 158.062 35.8977C157.784 36.1773 157.655 36.543 157.655 36.9516V46.9746C157.655 47.4047 157.784 47.7489 158.062 48.0285C158.34 48.3081 158.682 48.4587 159.088 48.4587C159.495 48.4587 159.858 48.3081 160.115 48.0285C160.393 47.7489 160.521 47.4047 160.521 46.9746V40.7586C160.521 40.2209 160.649 39.7477 160.863 39.3176C161.099 38.8874 161.441 38.5433 161.868 38.2852C162.318 38.0271 162.852 37.898 163.494 37.898C164.157 37.898 164.67 38.0271 165.012 38.2852C165.354 38.5433 165.611 38.8874 165.739 39.3176C165.868 39.7477 165.953 40.2209 165.953 40.7586V46.9746C165.953 47.4047 166.081 47.7489 166.359 48.0285C166.637 48.3081 166.98 48.4587 167.407 48.4587C167.835 48.4587 168.177 48.3081 168.434 48.0285C168.712 47.7489 168.84 47.4047 168.84 46.9746V40.7586C168.84 39.7477 168.712 38.8229 168.498 37.984C168.284 37.1452 167.856 36.4784 167.236 35.9838Z" fill="#094910"/>
<path d="M173.288 35.4673C172.861 35.4673 172.519 35.6178 172.262 35.8975C171.984 36.1771 171.856 36.5427 171.856 36.9514V46.9743C171.856 47.4045 171.984 47.7486 172.262 48.0282C172.54 48.3078 172.882 48.4584 173.288 48.4584C173.716 48.4584 174.058 48.3078 174.315 48.0282C174.593 47.7486 174.721 47.4045 174.721 46.9743V36.9514C174.721 36.5427 174.593 36.1771 174.315 35.8975C174.037 35.6178 173.695 35.4673 173.288 35.4673Z" fill="#094910"/>
<path d="M173.288 31.0151C172.775 31.0151 172.39 31.1012 172.134 31.2732C171.877 31.4453 171.77 31.7679 171.77 32.2411V32.6928C171.77 33.1445 171.877 33.4671 172.112 33.6392C172.326 33.8112 172.732 33.8973 173.267 33.8973C173.823 33.8973 174.208 33.8112 174.443 33.6392C174.678 33.4671 174.807 33.1445 174.807 32.6713V32.2196C174.807 31.7679 174.7 31.4453 174.465 31.2732C174.229 31.1012 173.844 31.0151 173.288 31.0151Z" fill="#094910"/>
<path d="M188.258 35.231C187.831 35.231 187.489 35.3815 187.211 35.6611C186.933 35.9407 186.804 36.3064 186.804 36.715V36.7581C186.654 36.629 186.505 36.4784 186.334 36.3494C185.906 36.0268 185.414 35.7687 184.815 35.5536C184.238 35.3385 183.596 35.231 182.912 35.231C181.843 35.231 180.859 35.5106 179.961 36.0913C179.084 36.672 178.378 37.4678 177.844 38.4787C177.33 39.4896 177.052 40.6511 177.052 41.9846C177.052 43.2966 177.309 44.4581 177.844 45.469C178.357 46.4799 179.084 47.2757 179.982 47.8564C180.88 48.4372 181.885 48.7168 182.998 48.7168C183.618 48.7168 184.174 48.6092 184.708 48.4156C185.222 48.2221 185.692 47.964 186.077 47.6844C186.376 47.4693 186.612 47.2327 186.804 47.0176C186.804 47.4263 186.933 47.7919 187.211 48.0715C187.489 48.3511 187.831 48.5017 188.258 48.5017C188.686 48.5017 189.028 48.3511 189.285 48.0715C189.563 47.7919 189.691 47.4478 189.691 47.0176V36.7581C189.691 36.3279 189.563 35.9622 189.285 35.6826C189.028 35.3815 188.686 35.231 188.258 35.231ZM186.505 44.0494C186.205 44.6732 185.799 45.1464 185.264 45.512C184.73 45.8776 184.11 46.0497 183.404 46.0497C182.72 46.0497 182.099 45.8776 181.565 45.512C181.03 45.1464 180.624 44.6732 180.324 44.0494C180.025 43.4257 179.875 42.7374 179.875 41.9846C179.875 41.2103 180.025 40.522 180.324 39.8983C180.624 39.2745 181.03 38.8014 181.565 38.4357C182.099 38.0701 182.698 37.898 183.404 37.898C184.11 37.898 184.73 38.0701 185.264 38.4357C185.799 38.8014 186.205 39.2745 186.505 39.8983C186.804 40.522 186.954 41.2103 186.954 41.9846C186.932 42.7374 186.783 43.4257 186.505 44.0494Z" fill="#094910"/>
<path d="M195.594 30.9292C195.337 30.6496 194.995 30.499 194.567 30.499C194.14 30.499 193.797 30.6496 193.519 30.9292C193.241 31.2088 193.092 31.5744 193.092 31.9831V46.9745C193.092 47.4047 193.22 47.7488 193.498 48.0284C193.776 48.308 194.118 48.4586 194.503 48.4586C194.931 48.4586 195.273 48.308 195.551 48.0284C195.829 47.7488 195.979 47.4047 195.979 46.9745V31.9831C196 31.5529 195.85 31.2088 195.594 30.9292Z" fill="#094910"/>
<path d="M80.1751 56.7603C80.6669 56.7603 81.0946 56.8678 81.4582 57.1044C81.8218 57.3195 82.1212 57.6421 82.335 58.0293C82.5489 58.4164 82.6558 58.8681 82.6558 59.3843C82.6558 59.9005 82.5489 60.3522 82.335 60.7608C82.1212 61.1695 81.8218 61.4921 81.4582 61.7287C81.0946 61.9653 80.6669 62.0728 80.1751 62.0728H77.4163L77.4805 61.9438V65.5572C77.4805 65.6648 77.4377 65.7508 77.3735 65.8368C77.288 65.9229 77.2024 65.9444 77.0955 65.9444C76.9672 65.9444 76.8817 65.9014 76.8175 65.8368C76.7533 65.7508 76.7106 65.6648 76.7106 65.5572V57.1689C76.7106 57.0614 76.7533 56.9753 76.8175 56.8893C76.903 56.8033 76.9886 56.7818 77.0955 56.7818H80.1751V56.7603ZM80.1751 61.277C80.5172 61.277 80.8166 61.191 81.0519 61.0189C81.3085 60.8469 81.501 60.6103 81.6507 60.3307C81.8004 60.0295 81.8645 59.7069 81.8645 59.3628C81.8645 59.0186 81.8004 58.696 81.6507 58.4164C81.501 58.1368 81.3085 57.9217 81.0519 57.7712C80.7952 57.6206 80.4959 57.5346 80.1751 57.5346H77.4163L77.4805 57.427V61.3846L77.3949 61.2985H80.1751V61.277Z" fill="#1A1A1A"/>
<path d="M89.1784 59.2769C89.2854 59.2769 89.3923 59.3199 89.4564 59.3844C89.5206 59.4704 89.5634 59.5565 89.5634 59.664V63.3635C89.5634 64.2238 89.3281 64.8906 88.8363 65.3422C88.3444 65.7939 87.7028 66.0305 86.8688 66.0305C86.0561 66.0305 85.3932 65.7939 84.9227 65.3422C84.4308 64.8906 84.1956 64.2238 84.1956 63.3635V59.664C84.1956 59.5565 84.2383 59.4704 84.3025 59.3844C84.3666 59.2984 84.4736 59.2769 84.5805 59.2769C84.6874 59.2769 84.7944 59.3199 84.8585 59.3844C84.9227 59.4704 84.9654 59.5565 84.9654 59.664V63.3635C84.9654 63.9872 85.1365 64.4604 85.4573 64.8045C85.7995 65.1272 86.2486 65.2992 86.8474 65.2992C87.4462 65.2992 87.9167 65.1272 88.2588 64.8045C88.601 64.4819 88.7721 64.0087 88.7721 63.3635V59.664C88.7721 59.5565 88.8149 59.4704 88.879 59.3844C88.9646 59.2984 89.0501 59.2769 89.1784 59.2769Z" fill="#1A1A1A"/>
<path d="M94.7815 59.0617C95.3803 59.0617 95.8936 59.2123 96.3427 59.5134C96.7918 59.8145 97.1553 60.2232 97.4333 60.7394C97.7113 61.2556 97.8397 61.8579 97.8397 62.5461C97.8397 63.2129 97.7113 63.8151 97.4333 64.3313C97.1553 64.869 96.7918 65.2777 96.3427 65.5788C95.8936 65.8799 95.3589 66.0305 94.8029 66.0305C94.5035 66.0305 94.2041 65.9875 93.9475 65.8799C93.6694 65.7939 93.4342 65.6649 93.199 65.4928C92.9637 65.3422 92.7712 65.1486 92.6001 64.9336C92.4291 64.7185 92.2794 64.4819 92.1938 64.2238L92.4291 64.0517V65.5358C92.4291 65.6433 92.3863 65.7509 92.3221 65.8154C92.258 65.8799 92.1511 65.9229 92.0441 65.9229C91.9372 65.9229 91.8303 65.8799 91.7661 65.8154C91.7019 65.7509 91.6592 65.6433 91.6592 65.5358V56.6313C91.6592 56.5238 91.7019 56.4162 91.7661 56.3517C91.8303 56.2872 91.9372 56.2441 92.0441 56.2441C92.1511 56.2441 92.258 56.2872 92.3221 56.3517C92.3863 56.4162 92.4291 56.5238 92.4291 56.6313V61.019L92.2366 60.9115C92.3221 60.6319 92.4505 60.3953 92.6215 60.1802C92.7926 59.9651 92.9851 59.7715 93.2203 59.5995C93.4556 59.4274 93.6908 59.2983 93.9688 59.2123C94.2468 59.1263 94.4821 59.0617 94.7815 59.0617ZM94.6959 59.8145C94.2255 59.8145 93.8191 59.9221 93.4556 60.1587C93.092 60.3953 92.814 60.7179 92.6215 61.1266C92.4077 61.5352 92.3221 62.0084 92.3221 62.5461C92.3221 63.0623 92.4291 63.5355 92.6215 63.9657C92.8354 64.3958 93.1134 64.7185 93.4556 64.9551C93.7978 65.1917 94.2255 65.3207 94.6959 65.3207C95.145 65.3207 95.5514 65.1917 95.9149 64.9551C96.2571 64.7185 96.5565 64.3743 96.749 63.9442C96.9628 63.514 97.0698 63.0408 97.0698 62.5461C97.0698 62.0084 96.9628 61.5352 96.749 61.1266C96.5351 60.7179 96.2571 60.3953 95.9149 60.1587C95.5728 59.9221 95.1664 59.8145 94.6959 59.8145Z" fill="#1A1A1A"/>
<path d="M100.363 65.5358C100.363 65.6433 100.32 65.7294 100.256 65.8154C100.171 65.9014 100.085 65.923 99.9782 65.923C99.8713 65.923 99.7643 65.8799 99.7002 65.8154C99.636 65.7294 99.5933 65.6433 99.5933 65.5358V56.6313C99.5933 56.5238 99.636 56.4377 99.7002 56.3517C99.7857 56.2657 99.8713 56.2441 99.9782 56.2441C100.085 56.2441 100.192 56.2872 100.256 56.3517C100.32 56.4377 100.363 56.5238 100.363 56.6313V65.5358Z" fill="#1A1A1A"/>
<path d="M102.844 58.2444C102.651 58.2444 102.523 58.2014 102.438 58.1154C102.352 58.0293 102.309 57.9218 102.309 57.7497V57.6207C102.309 57.4701 102.352 57.3411 102.459 57.255C102.566 57.169 102.694 57.126 102.865 57.126C103.036 57.126 103.165 57.169 103.25 57.255C103.336 57.3411 103.379 57.4486 103.379 57.6207V57.7497C103.379 57.9003 103.336 58.0293 103.25 58.1154C103.165 58.2014 103.036 58.2444 102.844 58.2444ZM103.25 65.5358C103.25 65.6433 103.207 65.7294 103.143 65.8154C103.058 65.9014 102.972 65.9229 102.865 65.9229C102.758 65.9229 102.651 65.8799 102.587 65.8154C102.523 65.7294 102.48 65.6433 102.48 65.5358V59.5134C102.48 59.4059 102.523 59.3198 102.587 59.2338C102.651 59.1478 102.758 59.1263 102.865 59.1263C102.972 59.1263 103.079 59.1693 103.143 59.2338C103.207 59.3198 103.25 59.4059 103.25 59.5134V65.5358Z" fill="#1A1A1A"/>
<path d="M108.212 59.0615C108.618 59.0615 109.003 59.1045 109.367 59.1906C109.709 59.2766 109.987 59.4057 110.201 59.5562C110.414 59.7068 110.521 59.8788 110.521 60.0724C110.521 60.1585 110.5 60.2445 110.436 60.3305C110.372 60.4166 110.286 60.4596 110.179 60.4596C110.072 60.4596 109.987 60.4381 109.923 60.3735C109.858 60.3305 109.794 60.266 109.73 60.18C109.666 60.1154 109.58 60.0509 109.452 59.9864C109.345 59.9434 109.174 59.8788 108.96 59.8358C108.746 59.7928 108.511 59.7713 108.254 59.7713C107.763 59.7713 107.335 59.9004 106.95 60.1369C106.565 60.3735 106.244 60.7177 106.03 61.1263C105.795 61.535 105.688 62.0082 105.688 62.5244C105.688 63.0406 105.795 63.5138 106.009 63.9439C106.223 64.3526 106.522 64.6967 106.907 64.9333C107.292 65.1699 107.741 65.299 108.254 65.299C108.597 65.299 108.875 65.2775 109.067 65.2129C109.26 65.1484 109.431 65.0839 109.559 64.9979C109.73 64.9118 109.837 64.8043 109.923 64.7183C109.987 64.6322 110.094 64.5892 110.222 64.5892C110.329 64.5892 110.414 64.6322 110.479 64.6967C110.543 64.7613 110.564 64.8473 110.564 64.9548C110.564 65.0839 110.457 65.256 110.265 65.428C110.051 65.6001 109.773 65.7507 109.431 65.8797C109.067 66.0088 108.661 66.0733 108.212 66.0733C107.57 66.0733 106.993 65.9227 106.501 65.6216C106.009 65.3205 105.624 64.8903 105.346 64.3741C105.068 63.8364 104.94 63.2557 104.94 62.5889C104.94 61.9437 105.068 61.3629 105.346 60.8467C105.624 60.3305 106.009 59.9004 106.501 59.5777C106.993 59.2551 107.549 59.0615 108.212 59.0615Z" fill="#1A1A1A"/>
<path d="M120.808 65.1486C120.915 65.1486 121 65.1916 121.086 65.2561C121.171 65.3206 121.193 65.4282 121.193 65.5142C121.193 65.6218 121.15 65.7293 121.086 65.7938C121 65.8584 120.915 65.9014 120.808 65.9014H116.167C116.06 65.9014 115.953 65.8584 115.889 65.7938C115.825 65.7078 115.782 65.6218 115.782 65.5142V57.1259C115.782 57.0184 115.825 56.9323 115.889 56.8463C115.975 56.7603 116.06 56.7388 116.189 56.7388C116.296 56.7388 116.381 56.7818 116.467 56.8463C116.552 56.9323 116.595 57.0184 116.595 57.1259V65.3422L116.338 65.1271H120.808V65.1486Z" fill="#1A1A1A"/>
<path d="M122.861 58.2444C122.668 58.2444 122.54 58.2014 122.455 58.1154C122.369 58.0293 122.326 57.9218 122.326 57.7497V57.6207C122.326 57.4701 122.369 57.3411 122.476 57.255C122.583 57.169 122.711 57.126 122.882 57.126C123.053 57.126 123.182 57.169 123.267 57.255C123.353 57.3411 123.396 57.4486 123.396 57.6207V57.7497C123.396 57.9003 123.353 58.0293 123.267 58.1154C123.16 58.2014 123.032 58.2444 122.861 58.2444ZM123.246 65.5358C123.246 65.6433 123.203 65.7294 123.139 65.8154C123.053 65.9014 122.968 65.9229 122.861 65.9229C122.754 65.9229 122.647 65.8799 122.583 65.8154C122.519 65.7294 122.476 65.6433 122.476 65.5358V59.5134C122.476 59.4059 122.519 59.3198 122.583 59.2338C122.647 59.1478 122.754 59.1263 122.861 59.1263C122.968 59.1263 123.075 59.1693 123.139 59.2338C123.203 59.3198 123.246 59.4059 123.246 59.5134V65.5358Z" fill="#1A1A1A"/>
<path d="M128.443 59.0617C129.041 59.0617 129.555 59.2123 130.004 59.5134C130.453 59.8145 130.816 60.2232 131.094 60.7394C131.372 61.2556 131.501 61.8579 131.501 62.5461C131.501 63.2129 131.372 63.8151 131.094 64.3313C130.816 64.869 130.453 65.2777 130.004 65.5788C129.555 65.8799 129.02 66.0305 128.464 66.0305C128.165 66.0305 127.865 65.9875 127.609 65.8799C127.331 65.7939 127.095 65.6649 126.86 65.4928C126.625 65.3422 126.432 65.1486 126.261 64.9336C126.09 64.7185 125.94 64.4819 125.855 64.2238L126.09 64.0517V65.5358C126.09 65.6433 126.047 65.7509 125.983 65.8154C125.919 65.8799 125.812 65.9229 125.705 65.9229C125.598 65.9229 125.491 65.8799 125.427 65.8154C125.363 65.7509 125.32 65.6433 125.32 65.5358V56.6313C125.32 56.5238 125.363 56.4162 125.427 56.3517C125.491 56.2872 125.598 56.2441 125.705 56.2441C125.812 56.2441 125.919 56.2872 125.983 56.3517C126.047 56.4162 126.09 56.5238 126.09 56.6313V61.019L125.898 60.9115C125.983 60.6319 126.112 60.3953 126.283 60.1802C126.454 59.9651 126.646 59.7715 126.881 59.5995C127.117 59.4274 127.352 59.2983 127.63 59.2123C127.908 59.1263 128.143 59.0617 128.443 59.0617ZM128.378 59.8145C127.908 59.8145 127.502 59.9221 127.138 60.1587C126.775 60.3953 126.497 60.7179 126.304 61.1266C126.09 61.5352 126.005 62.0084 126.005 62.5461C126.005 63.0623 126.112 63.5355 126.304 63.9657C126.518 64.3958 126.796 64.7185 127.138 64.9551C127.502 65.1917 127.908 65.3207 128.378 65.3207C128.828 65.3207 129.234 65.1917 129.597 64.9551C129.94 64.7185 130.239 64.3743 130.431 63.9442C130.645 63.514 130.752 63.0408 130.752 62.5461C130.752 62.0084 130.645 61.5352 130.431 61.1266C130.218 60.7179 129.94 60.3953 129.597 60.1587C129.234 59.9221 128.828 59.8145 128.378 59.8145Z" fill="#1A1A1A"/>
<path d="M133.554 65.9227C133.425 65.9227 133.34 65.8797 133.276 65.8152C133.212 65.7292 133.169 65.6431 133.169 65.5356V59.6638C133.169 59.5562 133.212 59.4702 133.276 59.3842C133.34 59.2981 133.447 59.2766 133.554 59.2766C133.661 59.2766 133.768 59.3196 133.832 59.3842C133.896 59.4702 133.939 59.5562 133.939 59.6638V61.621L133.746 61.6641C133.768 61.3629 133.853 61.0618 133.981 60.7607C134.11 60.4596 134.281 60.18 134.495 59.9219C134.709 59.6638 134.965 59.4702 135.265 59.2981C135.564 59.1476 135.906 59.0615 136.27 59.0615C136.419 59.0615 136.569 59.1045 136.719 59.1691C136.869 59.2336 136.933 59.3411 136.933 59.4917C136.933 59.6207 136.89 59.7283 136.826 59.7928C136.762 59.8573 136.676 59.9004 136.569 59.9004C136.484 59.9004 136.398 59.8788 136.313 59.8358C136.227 59.7928 136.099 59.7713 135.949 59.7713C135.714 59.7713 135.457 59.8358 135.222 59.9864C134.987 60.1369 134.751 60.3305 134.559 60.5671C134.366 60.8037 134.195 61.0833 134.088 61.3844C133.981 61.6856 133.917 61.9867 133.917 62.2878V65.5141C133.917 65.6216 133.875 65.7076 133.81 65.7937C133.746 65.8797 133.661 65.9227 133.554 65.9227Z" fill="#1A1A1A"/>
<path d="M143.477 59.2341C143.584 59.2341 143.691 59.2771 143.755 59.3416C143.819 59.4276 143.862 59.5137 143.862 59.6212V65.5145C143.862 65.6221 143.819 65.7081 143.755 65.7941C143.669 65.8802 143.584 65.9017 143.477 65.9017C143.37 65.9017 143.263 65.8587 143.199 65.7941C143.135 65.7081 143.092 65.6221 143.092 65.5145V63.9659L143.306 63.8584C143.306 64.095 143.241 64.3531 143.113 64.6112C142.985 64.8693 142.792 65.1059 142.557 65.321C142.322 65.536 142.044 65.7081 141.723 65.8587C141.402 65.9877 141.06 66.0522 140.697 66.0522C140.098 66.0522 139.585 65.9017 139.114 65.6006C138.644 65.2994 138.28 64.8693 138.023 64.3531C137.767 63.8154 137.617 63.2131 137.617 62.5679C137.617 61.8796 137.745 61.2774 138.023 60.7612C138.301 60.245 138.665 59.8363 139.114 59.5352C139.563 59.2341 140.098 59.0835 140.675 59.0835C141.039 59.0835 141.402 59.148 141.723 59.2771C142.044 59.4061 142.322 59.5782 142.579 59.8148C142.814 60.0514 143.006 60.3095 143.135 60.5891C143.263 60.8902 143.327 61.1913 143.327 61.4924L143.049 61.2989V59.6427C143.049 59.5352 143.092 59.4276 143.156 59.3631C143.263 59.2771 143.37 59.2341 143.477 59.2341ZM140.761 65.321C141.21 65.321 141.638 65.1919 141.98 64.9553C142.343 64.7187 142.621 64.3746 142.814 63.9659C143.028 63.5357 143.113 63.0626 143.113 62.5464C143.113 62.0302 143.006 61.5785 142.814 61.1483C142.6 60.7397 142.322 60.417 141.98 60.1589C141.616 59.9223 141.21 59.7933 140.761 59.7933C140.312 59.7933 139.905 59.9008 139.542 60.1374C139.178 60.374 138.9 60.6966 138.686 61.1053C138.472 61.514 138.387 61.9871 138.387 62.5249C138.387 63.0411 138.494 63.5142 138.686 63.9444C138.9 64.3746 139.178 64.6972 139.52 64.9338C139.905 65.1919 140.312 65.321 140.761 65.321Z" fill="#1A1A1A"/>
<path d="M146.3 65.9227C146.171 65.9227 146.086 65.8797 146.022 65.8152C145.957 65.7292 145.915 65.6431 145.915 65.5356V59.6638C145.915 59.5562 145.957 59.4702 146.022 59.3842C146.086 59.2981 146.193 59.2766 146.3 59.2766C146.407 59.2766 146.514 59.3196 146.578 59.3842C146.642 59.4702 146.685 59.5562 146.685 59.6638V61.621L146.492 61.6641C146.514 61.3629 146.599 61.0618 146.727 60.7607C146.856 60.4596 147.027 60.18 147.241 59.9219C147.454 59.6638 147.711 59.4702 148.011 59.2981C148.31 59.1476 148.652 59.0615 149.016 59.0615C149.165 59.0615 149.315 59.1045 149.465 59.1691C149.614 59.2336 149.679 59.3411 149.679 59.4917C149.679 59.6207 149.636 59.7283 149.572 59.7928C149.508 59.8573 149.422 59.9004 149.315 59.9004C149.23 59.9004 149.144 59.8788 149.058 59.8358C148.973 59.7928 148.845 59.7713 148.695 59.7713C148.46 59.7713 148.203 59.8358 147.968 59.9864C147.733 60.1369 147.497 60.3305 147.305 60.5671C147.112 60.8037 146.941 61.0833 146.834 61.3844C146.727 61.6856 146.663 61.9867 146.663 62.2878V65.5141C146.663 65.6216 146.62 65.7076 146.556 65.7937C146.492 65.8797 146.407 65.9227 146.3 65.9227Z" fill="#1A1A1A"/>
<path d="M155.88 59.105C155.987 59.105 156.094 59.148 156.158 59.2125C156.223 59.2986 156.265 59.3846 156.265 59.4922V65.2564C156.265 65.9662 156.137 66.5684 155.859 67.0416C155.581 67.5363 155.218 67.902 154.747 68.1386C154.277 68.3967 153.742 68.5042 153.143 68.5042C152.78 68.5042 152.416 68.4612 152.117 68.3752C151.796 68.2891 151.539 68.1816 151.347 68.0525C151.24 67.988 151.154 67.9235 151.111 67.8374C151.069 67.7514 151.047 67.6654 151.09 67.5578C151.133 67.4288 151.197 67.3643 151.283 67.3212C151.368 67.2782 151.475 67.2782 151.561 67.3212C151.71 67.4073 151.924 67.4933 152.202 67.6008C152.48 67.7084 152.801 67.7729 153.143 67.7729C153.614 67.7729 154.041 67.6654 154.383 67.4718C154.726 67.2782 155.004 66.9771 155.196 66.6115C155.389 66.2243 155.474 65.7726 155.474 65.2564V64.3101L155.56 64.6327C155.431 64.9123 155.239 65.1489 155.004 65.3425C154.768 65.5575 154.49 65.7081 154.191 65.8372C153.892 65.9447 153.549 66.0092 153.207 66.0092C152.694 66.0092 152.245 65.9017 151.903 65.6866C151.561 65.4715 151.304 65.1704 151.133 64.8047C150.962 64.4391 150.876 63.9874 150.876 63.4927V59.4706C150.876 59.3631 150.919 59.2771 150.983 59.191C151.047 59.105 151.154 59.0835 151.261 59.0835C151.368 59.0835 151.475 59.1265 151.539 59.191C151.603 59.2771 151.646 59.3631 151.646 59.4706V63.3637C151.646 63.9659 151.774 64.4391 152.052 64.7832C152.309 65.1059 152.758 65.2779 153.357 65.2779C153.721 65.2779 154.063 65.1919 154.383 65.0198C154.704 64.8478 154.961 64.6112 155.153 64.3101C155.346 64.0089 155.453 63.7078 155.453 63.3852V59.4922C155.453 59.3846 155.496 59.2986 155.56 59.2125C155.667 59.148 155.774 59.105 155.88 59.105Z" fill="#1A1A1A"/>
</g>
<defs>
<clipPath id="clip0_146_1448">
<rect width="196" height="75" fill="white"/>
</clipPath>
</defs>
</svg>
